<svg width="13" height="13" viewBox="0 0 13 13" fill="none" xmlns="http://www.w3.org/2000/svg">
<path d="M1.42546 12.1733C1.20591 12.1733 1.03835 12.1387 0.922797 12.0693C0.818797 12.0116 0.749464 11.9249 0.714797 11.8093C0.68013 11.6822 0.662797 11.5378 0.662797 11.376V0.854666C0.662797 0.704444 0.68013 0.571555 0.714797 0.455999C0.761019 0.340443 0.841908 0.247999 0.957464 0.178666C1.07302 0.109332 1.2348 0.0746658 1.4428 0.0746658H5.2388C5.79346 0.0746658 6.30191 0.161332 6.76413 0.334666C7.23791 0.496443 7.64813 0.750666 7.9948 1.09733C8.35302 1.43244 8.63035 1.84267 8.8268 2.328C9.02324 2.81333 9.12146 3.37378 9.12146 4.00933C9.12146 4.63333 9.02324 5.188 8.8268 5.67333C8.63035 6.15867 8.35302 6.56889 7.9948 6.904C7.63658 7.22756 7.22058 7.476 6.7468 7.64933C6.28458 7.82267 5.77613 7.90933 5.22146 7.90933H2.24013V11.3933C2.24013 11.5551 2.21702 11.6938 2.1708 11.8093C2.13613 11.9249 2.06102 12.0116 1.94546 12.0693C1.84146 12.1387 1.66813 12.1733 1.42546 12.1733ZM2.24013 6.332H5.2388C5.70102 6.332 6.10546 6.24533 6.45213 6.072C6.7988 5.88711 7.07035 5.62133 7.2668 5.27467C7.46324 4.91644 7.56146 4.48311 7.56146 3.97467C7.56146 3.48933 7.46902 3.07333 7.28413 2.72667C7.09924 2.38 6.82769 2.11422 6.46946 1.92933C6.1228 1.74444 5.7068 1.652 5.22146 1.652H2.24013V6.332Z" fill="#C70071"/>
<path d="M11.7143 12.1907C11.3676 12.1907 11.125 12.1213 10.9863 11.9827C10.8476 11.844 10.7783 11.6129 10.7783 11.2893C10.7783 11.0467 10.8072 10.8618 10.865 10.7347C10.9227 10.596 11.021 10.4978 11.1596 10.44C11.2983 10.3707 11.4832 10.336 11.7143 10.336C12.061 10.336 12.2978 10.4053 12.425 10.544C12.5636 10.6827 12.633 10.9253 12.633 11.272C12.633 11.5031 12.6041 11.688 12.5463 11.8267C12.4885 11.9538 12.3903 12.0462 12.2516 12.104C12.1245 12.1618 11.9454 12.1907 11.7143 12.1907Z" fill="#0997D9" fill-opacity="0.97"/>
</svg>
