<svg width="50" height="44" viewBox="0 0 50 44" fill="none" xmlns="http://www.w3.org/2000/svg">
<path d="M24.9999 26.3399C27.3968 26.3399 29.3399 24.3968 29.3399 21.9999C29.3399 19.603 27.3968 17.6599 24.9999 17.6599C22.603 17.6599 20.6599 19.603 20.6599 21.9999C20.6599 24.3968 22.603 26.3399 24.9999 26.3399Z" fill="#39C1D7"/>
<path d="M25 26.96C22.2652 26.96 20.04 24.7349 20.04 22C20.04 19.2652 22.2652 17.04 25 17.04C27.7349 17.04 29.96 19.2652 29.96 22C29.96 24.7349 27.7349 26.96 25 26.96ZM25 18.28C22.9485 18.28 21.28 19.9485 21.28 22C21.28 24.0516 22.9485 25.72 25 25.72C27.0516 25.72 28.72 24.0516 28.72 22C28.72 19.9485 27.0516 18.28 25 18.28Z" fill="#1F212B"/>
<path d="M48.8699 22.0001C48.8699 18.667 44.856 15.7821 38.6287 14.0654C40.2296 7.80584 39.7367 2.88366 36.876 1.21338C35.7476 0.554316 34.3786 0.434036 32.8075 0.854396C30.4404 1.48804 27.7279 3.3406 24.9999 6.06178C22.2719 3.3406 19.5594 1.48866 17.1922 0.854396C15.6211 0.433416 14.2522 0.554316 13.1238 1.21338C10.2631 2.88366 9.7702 7.80522 11.371 14.0654C5.14376 15.7821 1.12988 18.667 1.12988 22.0001C1.12988 25.3332 5.14376 28.2181 11.371 29.9355C9.7702 36.195 10.2631 41.1172 13.1238 42.7875C13.8132 43.1899 14.5919 43.3926 15.4525 43.392C16 43.392 16.5809 43.3101 17.1922 43.1465C19.5594 42.5122 22.2719 40.6603 24.9999 37.9391C27.7279 40.6603 30.4404 42.5122 32.8075 43.1465C33.4189 43.3101 33.9998 43.392 34.5473 43.392C35.4078 43.392 36.1865 43.1905 36.876 42.7875C39.7367 41.1172 40.2289 36.195 38.6287 29.9355C44.856 28.2181 48.8699 25.3332 48.8699 22.0001ZM33.2887 2.65054C33.7382 2.53088 34.1548 2.47012 34.5386 2.47012C35.0718 2.47012 35.5405 2.58668 35.9379 2.81918C37.855 3.9389 38.2462 8.03957 36.8183 13.614C34.8511 13.1713 32.7046 12.8384 30.4236 12.6325C29.0851 10.7025 27.6925 8.9454 26.2895 7.40656C28.7806 4.90982 31.2247 3.20358 33.2887 2.65054ZM31.668 25.9055C30.937 27.1864 30.1676 28.4134 29.3783 29.5877C27.9771 29.6925 26.5164 29.7501 24.9999 29.7501C23.4834 29.7501 22.0226 29.6925 20.6221 29.5877C19.8328 28.4134 19.0634 27.1864 18.3324 25.9055C17.5766 24.5812 16.8983 23.2767 16.2907 22.0007C16.8983 20.7248 17.5766 19.4203 18.3324 18.0954C19.064 16.8138 19.8328 15.5868 20.6227 14.4126C22.0233 14.3078 23.4834 14.2501 24.9999 14.2501C26.5164 14.2501 27.9765 14.3078 29.3777 14.4126C30.167 15.5868 30.9364 16.8144 31.668 18.0954C32.4238 19.4197 33.102 20.7242 33.7096 22.0007C33.102 23.2767 32.4238 24.5812 31.668 25.9055ZM34.6992 24.198C35.3446 25.7238 35.8778 27.1926 36.3093 28.5889C34.8988 28.9032 33.3761 29.1655 31.7498 29.3595C32.2719 28.5374 32.7865 27.6967 33.2831 26.8268C33.7859 25.947 34.2552 25.0697 34.6992 24.198ZM24.9999 35.2415C23.9856 34.1199 22.9731 32.878 21.9842 31.5345C22.9712 31.5822 23.9756 31.6101 24.9999 31.6101C26.0241 31.6101 27.0285 31.5822 28.0156 31.5345C27.0267 32.8774 26.0142 34.1193 24.9999 35.2415ZM18.2493 29.3595C16.6237 29.1655 15.1003 28.9032 13.6898 28.5889C14.1214 27.1926 14.6546 25.7232 15.3 24.198C15.7439 25.0697 16.2139 25.947 16.7161 26.8268C17.2133 27.6973 17.7273 28.538 18.2493 29.3595ZM15.3006 19.8028C14.6552 18.277 14.1214 16.8076 13.6905 15.4108C15.101 15.0964 16.6243 14.8342 18.2506 14.6401C17.7279 15.4622 17.2139 16.3036 16.7173 17.1734C16.2139 18.0538 15.7445 18.9311 15.3006 19.8028ZM24.9999 8.7594C26.0142 9.88098 27.0267 11.1228 28.0156 12.4664C27.0285 12.418 26.0241 12.3901 24.9999 12.3901C23.9756 12.3901 22.9712 12.418 21.9842 12.4658C22.9731 11.1228 23.9856 9.88098 24.9999 8.7594ZM33.2831 17.174C32.7865 16.3036 32.2719 15.4628 31.7498 14.6407C33.3761 14.8348 34.8988 15.097 36.3099 15.4114C35.8784 16.8082 35.3452 18.277 34.6998 19.8035C34.2552 18.9311 33.7859 18.0538 33.2831 17.174ZM14.0618 2.81918C14.4599 2.58668 14.9274 2.47012 15.4612 2.47012C15.8443 2.47012 16.2622 2.53088 16.7111 2.65054C18.7751 3.20358 21.2191 4.9092 23.7103 7.40594C22.3072 8.94478 20.9147 10.7025 19.5761 12.6319C17.2951 12.8378 15.1481 13.1707 13.1814 13.6134C11.7536 8.03896 12.1448 3.93828 14.0618 2.81918ZM2.98988 22.0001C2.98988 19.7706 6.3385 17.3873 11.8776 15.8615C12.4784 17.8201 13.267 19.8828 14.2373 22.0001C13.267 24.1174 12.4784 26.1802 11.8776 28.1387C6.3385 26.6129 2.98988 24.2296 2.98988 22.0001ZM16.7111 41.3497C15.6366 41.6361 14.7457 41.5797 14.0618 41.1817C12.1448 40.062 11.7542 35.9613 13.1814 30.3869C15.1481 30.8295 17.2951 31.1625 19.5755 31.3683C20.9141 33.2984 22.3066 35.0555 23.7097 36.5949C21.2191 39.091 18.7751 40.7967 16.7111 41.3497ZM35.9379 41.1817C35.2541 41.581 34.3637 41.6368 33.2887 41.3497C31.2247 40.7967 28.7806 39.091 26.2895 36.5943C27.6925 35.0555 29.0851 33.2978 30.4236 31.3677C32.7046 31.1619 34.8511 30.8289 36.8177 30.3862C38.2462 35.9613 37.855 40.062 35.9379 41.1817ZM38.1222 28.1387C37.5214 26.1802 36.7328 24.1174 35.7625 22.0001C36.7328 19.8828 37.5214 17.8195 38.1222 15.8615C43.6613 17.3873 47.0099 19.7706 47.0099 22.0001C47.0099 24.2296 43.6613 26.6129 38.1222 28.1387Z" fill="#39C1D7"/>
<path d="M15.449 43.7011C14.5369 43.7011 13.7024 43.4835 12.9683 43.0545C10.0965 41.3774 9.38289 36.6833 10.998 30.1516C4.52457 28.3109 0.820068 25.3479 0.820068 21.9999C0.820068 18.6519 4.52457 15.6889 10.9974 13.8481C9.38289 7.31642 10.0965 2.6224 12.9683 0.945302C14.1699 0.242222 15.6176 0.110782 17.273 0.554702C19.5782 1.17222 22.2454 2.9231 25.0001 5.62568C27.7553 2.9231 30.4226 1.17222 32.7271 0.554702C34.3819 0.112022 35.8302 0.243462 37.0324 0.945302C39.9036 2.6224 40.6172 7.31642 39.0028 13.8481C45.4756 15.6889 49.1801 18.6519 49.1801 21.9999C49.1801 25.3479 45.4756 28.3109 39.0028 30.1516C40.6172 36.6833 39.9042 41.3767 37.0324 43.0545C35.8377 43.752 34.3751 43.8865 32.7277 43.4451C30.422 42.8275 27.7547 41.0767 25.0001 38.3747C22.2454 41.0767 19.5782 42.8282 17.273 43.4451C16.6387 43.6149 16.0262 43.7011 15.4527 43.7011C15.4514 43.7011 15.4502 43.7011 15.449 43.7011ZM15.4545 0.919261C14.6479 0.919261 13.9207 1.1065 13.2802 1.48098C10.6613 3.01052 10.0599 7.68594 11.6713 13.9882C11.7128 14.1519 11.6161 14.3193 11.4531 14.364C5.18363 16.0925 1.44007 18.9476 1.44007 21.9999C1.44007 25.0521 5.18363 27.9072 11.4537 29.6358C11.6167 29.6804 11.7135 29.8478 11.6719 30.0115C10.0599 36.3138 10.6613 40.9899 13.2802 42.5188C13.9188 42.8914 14.6485 43.0805 15.449 43.0805C15.4502 43.0805 15.4514 43.0805 15.4527 43.0805C15.9722 43.0805 16.5302 43.0018 17.1124 42.8461C19.3736 42.2404 22.0259 40.4678 24.7812 37.7187C24.9021 37.5985 25.098 37.5985 25.2189 37.7187C27.9742 40.4672 30.6266 42.2398 32.8877 42.8461C34.372 43.2423 35.6684 43.132 36.7199 42.5188C39.3388 40.9892 39.9402 36.3138 38.3282 30.0115C38.2867 29.8478 38.3834 29.6804 38.5464 29.6358C44.8165 27.9072 48.5601 25.0521 48.5601 21.9999C48.5601 18.9476 44.8165 16.0925 38.5464 14.364C38.3834 14.3193 38.2867 14.1519 38.3282 13.9882C39.9396 7.68594 39.3382 3.0099 36.7193 1.48098C35.6659 0.865322 34.3763 0.755582 32.8871 1.15362C30.6259 1.75936 27.9742 3.53194 25.2183 6.28102C25.0974 6.4013 24.9015 6.4013 24.7806 6.28102C22.0247 3.53194 19.3729 1.75936 17.1118 1.15362C16.5284 0.997382 15.9753 0.919261 15.4545 0.919261ZM34.5394 41.8393C34.1283 41.8393 33.6844 41.776 33.2089 41.6489C31.1436 41.0953 28.6754 39.4237 26.0702 36.8129C25.9536 36.6957 25.9493 36.5073 26.0603 36.3851C27.4646 34.845 28.8465 33.0973 30.169 31.1908C30.2211 31.1151 30.3042 31.0668 30.3959 31.0587C32.6354 30.8566 34.7731 30.5286 36.7503 30.0834C36.9121 30.0469 37.077 30.1461 37.1186 30.3091C38.5669 35.9654 38.1744 40.2341 36.0943 41.4487C35.6486 41.7091 35.1284 41.8393 34.5394 41.8393ZM26.7181 36.5829C29.1677 38.9972 31.4629 40.5391 33.3688 41.05C34.3602 41.3147 35.1724 41.2689 35.7819 40.9136C37.552 39.8794 37.8632 35.9083 36.5916 30.7537C34.7142 31.1622 32.6998 31.4679 30.5962 31.6632C29.3463 33.4562 28.043 35.1092 26.7181 36.5829ZM15.4607 41.8393C14.8717 41.8393 14.3516 41.7091 13.9058 41.4493C11.8257 40.2341 11.4326 35.9654 12.8815 30.3091C12.9231 30.1467 13.088 30.0493 13.2498 30.0834C15.2264 30.5286 17.3641 30.8566 19.6042 31.0587C19.6953 31.0668 19.779 31.1151 19.8311 31.1908C21.1536 33.0973 22.5356 34.845 23.9399 36.3851C24.0515 36.5073 24.0471 36.6957 23.9299 36.8129C21.3247 39.4231 18.8565 41.0953 16.7919 41.6489C16.3157 41.7754 15.8712 41.8393 15.4607 41.8393ZM13.4085 30.7537C12.1369 35.9077 12.4482 39.8794 14.2183 40.9136C14.8271 41.2682 15.6393 41.3147 16.6313 41.05C18.5372 40.5391 20.8324 38.9966 23.282 36.5829C21.9577 35.1092 20.6545 33.4562 19.4046 31.6632C17.3009 31.4679 15.2859 31.1622 13.4085 30.7537ZM25.0001 35.5506C24.9126 35.5506 24.8289 35.5134 24.77 35.4483C23.739 34.3081 22.7178 33.0526 21.7345 31.7171C21.6638 31.621 21.6545 31.4921 21.711 31.3867C21.7674 31.2813 21.8728 31.2168 21.9993 31.2236C24.049 31.3234 25.9511 31.3234 28.0009 31.2236C28.1249 31.2162 28.2327 31.2813 28.2892 31.3867C28.3456 31.4921 28.3369 31.6204 28.2656 31.7171C27.2823 33.052 26.2611 34.3075 25.2301 35.4483C25.1712 35.5134 25.0875 35.5506 25.0001 35.5506ZM22.6236 31.8728C23.3992 32.8989 24.1965 33.8729 25.0001 34.7768C25.8042 33.8729 26.6009 32.8995 27.3765 31.8728C25.7571 31.9348 24.243 31.9348 22.6236 31.8728ZM25.0001 30.0599C23.5313 30.0599 22.0507 30.0053 20.5987 29.8968C20.5038 29.89 20.4176 29.8398 20.3643 29.7604C19.5354 28.5272 18.761 27.2817 18.0629 26.059C17.3313 24.7769 16.6406 23.4563 16.0107 22.1332C15.9704 22.0489 15.9704 21.9509 16.0107 21.8666C16.6406 20.5435 17.3313 19.2229 18.0629 17.9407C18.7604 16.7193 19.5348 15.4738 20.3649 14.2387C20.4176 14.16 20.5044 14.1098 20.5993 14.1023C23.5034 13.8853 26.4974 13.8853 29.4008 14.1023C29.4957 14.1091 29.5819 14.1594 29.6352 14.2387C30.4654 15.4738 31.2397 16.7193 31.9372 17.9407C32.6688 19.2229 33.3595 20.5435 33.9894 21.8666C34.0297 21.9509 34.0297 22.0489 33.9894 22.1332C33.3595 23.4563 32.6688 24.7769 31.9372 26.059C31.2391 27.2817 30.4647 28.5272 29.6358 29.7604C29.5831 29.8392 29.4963 29.8894 29.4014 29.8968C27.9494 30.0053 26.4688 30.0599 25.0001 30.0599ZM20.7952 29.2892C23.5722 29.4889 26.4279 29.4889 29.2043 29.2892C29.9935 28.1094 30.7313 26.9196 31.3985 25.7509C32.0978 24.5251 32.7594 23.2641 33.3657 21.9999C32.7594 20.7357 32.0978 19.474 31.3985 18.2489C30.732 17.0814 29.9942 15.8916 29.2037 14.7099C26.4267 14.5103 23.5716 14.5103 20.7946 14.7099C20.0047 15.8916 19.2663 17.0814 18.5998 18.2489C17.9004 19.4746 17.2389 20.7357 16.6325 21.9999C17.2389 23.2641 17.9004 24.5258 18.5998 25.7509C19.2682 26.9202 20.006 28.1094 20.7952 29.2892ZM31.7506 29.6699C31.6452 29.6699 31.5454 29.616 31.4884 29.5254C31.4245 29.4238 31.4251 29.2948 31.489 29.1937C32.0643 28.2879 32.5634 27.4633 33.0142 26.6734C33.4879 25.8439 33.9615 24.9635 34.4234 24.0577C34.478 23.9504 34.5927 23.8865 34.7105 23.889C34.8308 23.8934 34.938 23.9665 34.9852 24.0781C35.6145 25.5655 36.1594 27.0529 36.6058 28.4981C36.6319 28.5806 36.6213 28.6705 36.5779 28.7449C36.5345 28.8199 36.4614 28.8732 36.3771 28.8918C34.9201 29.2173 33.3756 29.4783 31.7872 29.668C31.7748 29.6693 31.7624 29.6699 31.7506 29.6699ZM34.6696 24.9331C34.3013 25.6387 33.9268 26.325 33.553 26.9803C33.1915 27.614 32.799 28.2693 32.3626 28.9699C33.584 28.8075 34.7744 28.6023 35.9133 28.358C35.5556 27.2333 35.1389 26.0857 34.6696 24.9331ZM18.2495 29.6699C18.2371 29.6699 18.2247 29.6693 18.2123 29.668C16.6245 29.4777 15.0801 29.2167 13.6231 28.8912C13.5387 28.8726 13.4662 28.8193 13.4222 28.7442C13.3788 28.6692 13.3689 28.5799 13.3943 28.4975C13.8407 27.0516 14.3857 25.5649 15.015 24.0775C15.0621 23.9665 15.1693 23.8927 15.2896 23.8884C15.4025 23.8766 15.5221 23.9498 15.5767 24.057C16.0386 24.9629 16.5123 25.8433 16.9859 26.6728C17.4373 27.4627 17.9364 28.2873 18.5111 29.1931C18.5756 29.2942 18.5756 29.4231 18.5118 29.5248C18.4547 29.616 18.3555 29.6699 18.2495 29.6699ZM14.0874 28.358C15.2264 28.6023 16.4168 28.8075 17.6382 28.9699C17.2011 28.2693 16.8092 27.614 16.4478 26.9803C16.0733 26.325 15.6994 25.638 15.3312 24.9331C14.8612 26.0857 14.4446 27.2333 14.0874 28.358ZM38.1224 28.4485C37.9891 28.4485 37.8669 28.3623 37.826 28.229C37.2215 26.258 36.4322 24.2058 35.4812 22.1295C35.4433 22.0476 35.4433 21.9528 35.4812 21.8709C36.4322 19.7945 37.2215 17.7417 37.8266 15.7701C37.8762 15.6095 38.0461 15.5196 38.2054 15.5624C43.8276 17.1118 47.3201 19.5782 47.3201 21.9999C47.3201 24.4216 43.827 26.888 38.2042 28.4373C38.1769 28.4448 38.149 28.4485 38.1224 28.4485ZM36.1036 21.9999C36.994 23.956 37.7423 25.8916 38.3288 27.7584C43.4246 26.3058 46.7001 24.0595 46.7001 21.9999C46.7001 19.9402 43.4246 17.694 38.3288 16.2413C37.7417 18.1088 36.9933 20.0444 36.1036 21.9999ZM11.8778 28.4485C11.8505 28.4485 11.8232 28.4448 11.7953 28.4373C6.17315 26.888 2.68007 24.4216 2.68007 21.9999C2.68007 19.5782 6.17253 17.1118 11.7953 15.5624C11.9553 15.5196 12.1245 15.6095 12.1741 15.7701C12.7792 17.7417 13.5685 19.7945 14.5196 21.8709C14.5574 21.9528 14.5574 22.047 14.5196 22.1295C13.5679 24.2065 12.7792 26.2587 12.1747 28.229C12.1338 28.3623 12.0111 28.4485 11.8778 28.4485ZM11.6713 16.2413C6.57553 17.694 3.30007 19.9402 3.30007 21.9999C3.30007 24.0595 6.57553 26.3058 11.6713 27.7584C12.2584 25.8916 13.0062 23.9566 13.8965 21.9999C13.0068 20.0444 12.2584 18.1088 11.6713 16.2413ZM34.7 20.1132C34.5834 20.1132 34.4768 20.0481 34.4234 19.944C33.9541 19.0214 33.4928 18.1652 33.0148 17.3276C32.5647 16.5389 32.0656 15.7143 31.489 14.8066C31.4245 14.7056 31.4245 14.5766 31.4884 14.4749C31.5522 14.3739 31.6663 14.3181 31.7878 14.3323C33.3769 14.5227 34.9213 14.7837 36.3783 15.1086C36.4626 15.1272 36.5352 15.1805 36.5792 15.2555C36.6226 15.3305 36.6325 15.4198 36.6071 15.5023C36.1601 16.9506 35.6145 18.438 34.9864 19.9235C34.9393 20.0345 34.832 20.1083 34.7117 20.1126C34.7068 20.1132 34.7031 20.1132 34.7 20.1132ZM33.5523 17.02C33.9312 17.6834 34.2994 18.358 34.669 19.0673C35.1377 17.9166 35.5543 16.7677 35.9121 15.6418C34.7731 15.3975 33.5827 15.1923 32.3607 15.0298C32.7997 15.7317 33.1915 16.387 33.5523 17.02ZM15.3002 20.1132C15.2964 20.1132 15.2927 20.1132 15.289 20.1132C15.1687 20.1089 15.0615 20.0357 15.0143 19.9241C14.3863 18.4386 13.8407 16.9512 13.3937 15.5029C13.3676 15.4204 13.3782 15.3305 13.4216 15.2561C13.465 15.1811 13.5381 15.1278 13.6224 15.1092C15.0794 14.7837 16.6239 14.5227 18.2129 14.333C18.3338 14.3206 18.4485 14.3745 18.5124 14.4756C18.5762 14.5772 18.5756 14.7062 18.5118 14.8073C17.9352 15.7149 17.4361 16.5395 16.9859 17.3282C16.5079 18.1658 16.0466 19.0214 15.5773 19.9446C15.5234 20.0481 15.4167 20.1132 15.3002 20.1132ZM14.0874 15.6418C14.4452 16.7677 14.8624 17.9166 15.3305 19.0673C15.7007 18.358 16.0683 17.6834 16.4472 17.02C16.8086 16.387 17.2005 15.7317 17.6382 15.0298C16.4168 15.1923 15.2264 15.3975 14.0874 15.6418ZM36.8191 13.9238C36.7962 13.9238 36.7739 13.9213 36.7509 13.9163C34.7744 13.4712 32.636 13.1432 30.3959 12.9411C30.3048 12.933 30.2211 12.8846 30.169 12.809C28.8465 10.9019 27.4639 9.15472 26.0603 7.61526C25.9487 7.49312 25.953 7.30464 26.0702 7.18746C28.6748 4.57726 31.1436 2.9045 33.2089 2.35146C34.3676 2.04146 35.3404 2.11152 36.0943 2.5511C38.1744 3.7663 38.5675 8.035 37.1192 13.6913C37.0832 13.8301 36.958 13.9238 36.8191 13.9238ZM30.5956 12.3366C32.6992 12.5319 34.7142 12.8375 36.5916 13.2461C37.8632 8.09204 37.552 4.12032 35.7812 3.08616C35.1743 2.73214 34.3608 2.68564 33.3688 2.94976C31.4629 3.46064 29.1671 5.0032 26.7175 7.41748C28.0424 8.88998 29.3456 10.5429 30.5956 12.3366ZM13.181 13.9238C13.0421 13.9238 12.9169 13.8301 12.8809 13.6906C11.4326 8.03438 11.8251 3.7663 13.9052 2.5511C14.6591 2.11152 15.6337 2.04146 16.7906 2.35146C18.8565 2.90512 21.3247 4.57726 23.9293 7.18746C24.0459 7.30464 24.0502 7.49312 23.9392 7.61526C22.5356 9.15472 21.153 10.9025 19.8305 12.809C19.7784 12.8846 19.6953 12.933 19.6036 12.9411C17.3641 13.1432 15.2258 13.4712 13.2486 13.9163C13.2263 13.9213 13.2039 13.9238 13.181 13.9238ZM14.2183 3.08616C12.4482 4.12032 12.1369 8.09204 13.4079 13.2461C15.2853 12.8375 17.3003 12.5319 19.4039 12.3366C20.6545 10.5429 21.9571 8.88998 23.2814 7.41686C20.8318 5.00258 18.5366 3.46002 16.6301 2.94914C15.6424 2.68564 14.8277 2.73152 14.2183 3.08616ZM28.0157 12.7755C28.0108 12.7755 28.0058 12.7755 28.0009 12.7755C25.9511 12.6757 24.0496 12.6757 21.9999 12.7755C21.8722 12.7786 21.768 12.7172 21.7116 12.6125C21.6552 12.5071 21.6638 12.3787 21.7351 12.282C22.7191 10.9459 23.7402 9.6904 24.7707 8.55084C24.8885 8.42126 25.1129 8.42126 25.2307 8.55084C26.2605 9.68978 27.2817 10.9453 28.2662 12.282C28.3369 12.3781 28.3462 12.5071 28.2898 12.6125C28.2346 12.7129 28.1292 12.7755 28.0157 12.7755ZM25.0001 12.0799C25.7701 12.0799 26.5668 12.096 27.3765 12.1276C26.6003 11.1003 25.803 10.1263 25.0001 9.22354C24.1972 10.1269 23.3998 11.1003 22.6236 12.1276C23.4333 12.096 24.23 12.0799 25.0001 12.0799Z" fill="#1F212B"/>
</svg>
