<svg width="99" height="21" viewBox="0 0 99 21" fill="none" xmlns="http://www.w3.org/2000/svg">
<path d="M2.38705 17.1733C2.16749 17.1733 1.99994 17.1387 1.88438 17.0693C1.78038 17.0116 1.71105 16.9249 1.67638 16.8093C1.64172 16.6822 1.62438 16.5378 1.62438 16.376V5.85467C1.62438 5.70444 1.64172 5.57155 1.67638 5.456C1.72261 5.34044 1.80349 5.248 1.91905 5.17867C2.03461 5.10933 2.19638 5.07467 2.40438 5.07467H6.20038C6.75505 5.07467 7.26349 5.16133 7.72572 5.33467C8.19949 5.49644 8.60972 5.75067 8.95638 6.09733C9.31461 6.43244 9.59194 6.84267 9.78838 7.328C9.98483 7.81333 10.0831 8.37378 10.0831 9.00933C10.0831 9.63333 9.98483 10.188 9.78838 10.6733C9.59194 11.1587 9.31461 11.5689 8.95638 11.904C8.59816 12.2276 8.18216 12.476 7.70838 12.6493C7.24616 12.8227 6.73772 12.9093 6.18305 12.9093H3.20172V16.3933C3.20172 16.5551 3.17861 16.6938 3.13238 16.8093C3.09772 16.9249 3.02261 17.0116 2.90705 17.0693C2.80305 17.1387 2.62972 17.1733 2.38705 17.1733ZM3.20172 11.332H6.20038C6.66261 11.332 7.06705 11.2453 7.41372 11.072C7.76038 10.8871 8.03194 10.6213 8.22838 10.2747C8.42483 9.91644 8.52305 9.48311 8.52305 8.97467C8.52305 8.48933 8.43061 8.07333 8.24572 7.72667C8.06083 7.38 7.78927 7.11422 7.43105 6.92933C7.08438 6.74444 6.66838 6.652 6.18305 6.652H3.20172V11.332Z" fill="#C70071"/>
<path d="M17.2692 17.2947C16.4488 17.2947 15.6745 17.1387 14.9465 16.8267C14.2301 16.5147 13.5945 16.0813 13.0399 15.5267C12.4968 14.9604 12.0692 14.3133 11.7572 13.5853C11.4452 12.8573 11.2892 12.0716 11.2892 11.228C11.2892 10.3729 11.4394 9.56978 11.7399 8.81867C12.0403 8.056 12.4563 7.39155 12.9879 6.82533C13.531 6.25911 14.155 5.81422 14.8599 5.49067C15.5648 5.16711 16.3159 5.00533 17.1132 5.00533C17.9452 5.00533 18.7194 5.16133 19.4359 5.47333C20.1639 5.78533 20.7937 6.22444 21.3252 6.79067C21.8683 7.34533 22.2959 7.99822 22.6079 8.74933C22.9199 9.50044 23.0759 10.3036 23.0759 11.1587C23.0759 12.0022 22.9199 12.7938 22.6079 13.5333C22.3074 14.2613 21.8914 14.9142 21.3599 15.492C20.8283 16.0582 20.2101 16.5031 19.5052 16.8267C18.8119 17.1387 18.0665 17.2947 17.2692 17.2947ZM17.1652 15.7173C17.7661 15.7173 18.3265 15.6018 18.8465 15.3707C19.3781 15.1396 19.8403 14.816 20.2332 14.4C20.6261 13.9724 20.9323 13.4871 21.1519 12.944C21.383 12.3893 21.4985 11.7884 21.4985 11.1413C21.4985 10.5173 21.383 9.93378 21.1519 9.39067C20.9323 8.836 20.6203 8.35067 20.2159 7.93467C19.823 7.50711 19.3665 7.172 18.8465 6.92933C18.3265 6.68667 17.7719 6.56533 17.1825 6.56533C16.5932 6.56533 16.0385 6.68667 15.5185 6.92933C14.9985 7.172 14.5363 7.50133 14.1319 7.91733C13.739 8.33333 13.427 8.81867 13.1959 9.37333C12.9763 9.928 12.8665 10.5231 12.8665 11.1587C12.8665 11.7827 12.9763 12.372 13.1959 12.9267C13.427 13.4813 13.739 13.9667 14.1319 14.3827C14.5363 14.7987 14.9928 15.128 15.5012 15.3707C16.0212 15.6018 16.5759 15.7173 17.1652 15.7173ZM25.6139 17.1733C25.3943 17.1733 25.2267 17.1387 25.1112 17.0693C24.9956 17.0116 24.9205 16.9249 24.8859 16.8093C24.8627 16.6822 24.8512 16.5378 24.8512 16.376V5.83733C24.8512 5.68711 24.8685 5.56 24.9032 5.456C24.9494 5.34044 25.0245 5.248 25.1285 5.17867C25.2441 5.10933 25.4116 5.07467 25.6312 5.07467H29.4619C30.0281 5.07467 30.5423 5.16133 31.0045 5.33467C31.4783 5.49644 31.8885 5.73911 32.2352 6.06267C32.5819 6.38622 32.8476 6.79644 33.0325 7.29333C33.229 7.77867 33.3272 8.34489 33.3272 8.992C33.3272 9.39644 33.2636 9.81822 33.1365 10.2573C33.0094 10.6849 32.813 11.0893 32.5472 11.4707C32.293 11.852 31.9636 12.1698 31.5592 12.424C31.1547 12.6782 30.6636 12.8227 30.0859 12.8573H26.4112V16.3933C26.4112 16.5551 26.3881 16.6938 26.3419 16.8093C26.3072 16.9249 26.2321 17.0116 26.1165 17.0693C26.0125 17.1387 25.845 17.1733 25.6139 17.1733ZM33.0499 16.9827C32.8072 17.1444 32.5992 17.1964 32.4259 17.1387C32.2641 17.0809 32.1081 16.9422 31.9579 16.7227L29.1845 12.2853L30.9005 12.0253L33.2925 15.8387C33.4081 16.0236 33.4774 16.1796 33.5005 16.3067C33.5352 16.4338 33.5121 16.5493 33.4312 16.6533C33.3619 16.7573 33.2347 16.8671 33.0499 16.9827ZM26.4112 11.332H29.8432C30.109 11.332 30.3574 11.2858 30.5885 11.1933C30.8196 11.0893 31.0219 10.9391 31.1952 10.7427C31.3685 10.5462 31.5072 10.3036 31.6112 10.0147C31.7152 9.72578 31.7672 9.37911 31.7672 8.97467C31.7672 8.47778 31.6747 8.056 31.4899 7.70933C31.3165 7.36267 31.0565 7.10267 30.7099 6.92933C30.3632 6.74444 29.9356 6.652 29.4272 6.652H26.4112V11.332ZM43.8309 5.07467C43.9811 5.07467 44.1025 5.092 44.1949 5.12667C44.2989 5.16133 44.3798 5.23067 44.4376 5.33467C44.4954 5.42711 44.5243 5.58311 44.5243 5.80267C44.5243 6.01067 44.4896 6.16667 44.4203 6.27067C44.3625 6.37467 44.2816 6.444 44.1776 6.47867C44.0736 6.50178 43.9465 6.51333 43.7963 6.51333H40.2083V16.4107C40.2083 16.5609 40.1851 16.6938 40.1389 16.8093C40.1043 16.9249 40.0291 17.0116 39.9136 17.0693C39.8096 17.1387 39.6478 17.1733 39.4283 17.1733C39.1971 17.1733 39.0238 17.1387 38.9083 17.0693C38.8043 17.0116 38.7349 16.9249 38.7003 16.8093C38.6771 16.6822 38.6656 16.5436 38.6656 16.3933V6.51333H35.0256C34.8754 6.51333 34.7483 6.50178 34.6443 6.47867C34.5403 6.444 34.4594 6.37467 34.4016 6.27067C34.3438 6.16667 34.3149 6.01067 34.3149 5.80267C34.3149 5.58311 34.338 5.42711 34.3843 5.33467C34.442 5.23067 34.5229 5.16133 34.6269 5.12667C34.7425 5.092 34.8696 5.07467 35.0083 5.07467H43.8309ZM47.264 17.1733C47.0329 17.1733 46.8596 17.1387 46.744 17.0693C46.64 17.0116 46.5707 16.9249 46.536 16.8093C46.5013 16.6822 46.484 16.5378 46.484 16.376V5.85467C46.484 5.55422 46.5418 5.352 46.6573 5.248C46.7844 5.13244 47.004 5.07467 47.316 5.07467H54.284C54.4458 5.07467 54.5787 5.092 54.6827 5.12667C54.7982 5.16133 54.8849 5.23644 54.9427 5.352C55.0004 5.46755 55.0293 5.64089 55.0293 5.872C55.0293 6.10311 54.9947 6.27644 54.9253 6.392C54.8676 6.496 54.7809 6.56533 54.6653 6.6C54.5498 6.63467 54.4111 6.652 54.2493 6.652H48.044V10.24H52.36C52.5218 10.24 52.6547 10.2573 52.7587 10.292C52.8742 10.3267 52.9609 10.396 53.0187 10.5C53.0764 10.604 53.1053 10.7658 53.1053 10.9853C53.1053 11.1933 53.0764 11.3493 53.0187 11.4533C52.9609 11.5573 52.8742 11.6267 52.7587 11.6613C52.6547 11.6844 52.516 11.696 52.3427 11.696H48.044V16.3933C48.044 16.5551 48.0267 16.6938 47.992 16.8093C47.9573 16.9249 47.8822 17.0116 47.7667 17.0693C47.6627 17.1387 47.4951 17.1733 47.264 17.1733ZM62.5322 17.2947C61.7118 17.2947 60.9376 17.1387 60.2096 16.8267C59.4931 16.5147 58.8576 16.0813 58.3029 15.5267C57.7598 14.9604 57.3322 14.3133 57.0202 13.5853C56.7082 12.8573 56.5522 12.0716 56.5522 11.228C56.5522 10.3729 56.7025 9.56978 57.0029 8.81867C57.3033 8.056 57.7193 7.39155 58.2509 6.82533C58.794 6.25911 59.418 5.81422 60.1229 5.49067C60.8278 5.16711 61.5789 5.00533 62.3762 5.00533C63.2082 5.00533 63.9825 5.16133 64.6989 5.47333C65.4269 5.78533 66.0567 6.22444 66.5882 6.79067C67.1313 7.34533 67.5589 7.99822 67.8709 8.74933C68.1829 9.50044 68.3389 10.3036 68.3389 11.1587C68.3389 12.0022 68.1829 12.7938 67.8709 13.5333C67.5705 14.2613 67.1545 14.9142 66.6229 15.492C66.0913 16.0582 65.4731 16.5031 64.7682 16.8267C64.0749 17.1387 63.3296 17.2947 62.5322 17.2947ZM62.4282 15.7173C63.0291 15.7173 63.5896 15.6018 64.1096 15.3707C64.6411 15.1396 65.1033 14.816 65.4962 14.4C65.8891 13.9724 66.1953 13.4871 66.4149 12.944C66.646 12.3893 66.7616 11.7884 66.7616 11.1413C66.7616 10.5173 66.646 9.93378 66.4149 9.39067C66.1953 8.836 65.8833 8.35067 65.4789 7.93467C65.086 7.50711 64.6296 7.172 64.1096 6.92933C63.5896 6.68667 63.0349 6.56533 62.4456 6.56533C61.8562 6.56533 61.3016 6.68667 60.7816 6.92933C60.2616 7.172 59.7993 7.50133 59.3949 7.91733C59.002 8.33333 58.69 8.81867 58.4589 9.37333C58.2393 9.928 58.1296 10.5231 58.1296 11.1587C58.1296 11.7827 58.2393 12.372 58.4589 12.9267C58.69 13.4813 59.002 13.9667 59.3949 14.3827C59.7993 14.7987 60.2558 15.128 60.7642 15.3707C61.2842 15.6018 61.8389 15.7173 62.4282 15.7173ZM70.7382 17.1733C70.5071 17.1733 70.3338 17.1387 70.2182 17.0693C70.1027 17.0116 70.0218 16.9249 69.9755 16.8093C69.9409 16.6938 69.9235 16.5551 69.9235 16.3933V5.872C69.9235 5.69867 69.9409 5.55422 69.9755 5.43867C70.0102 5.32311 70.0795 5.23644 70.1835 5.17867C70.2991 5.10933 70.4724 5.07467 70.7035 5.07467C70.9347 5.07467 71.1022 5.10933 71.2062 5.17867C71.3218 5.23644 71.3969 5.32311 71.4315 5.43867C71.4662 5.55422 71.4835 5.69289 71.4835 5.85467V15.7173H77.2902C77.4404 15.7173 77.5675 15.7347 77.6715 15.7693C77.7755 15.804 77.8564 15.8733 77.9142 15.9773C77.9835 16.0813 78.0182 16.2373 78.0182 16.4453C78.0182 16.6418 77.9893 16.7978 77.9315 16.9133C77.8738 17.0173 77.7929 17.0867 77.6889 17.1213C77.5849 17.156 77.4578 17.1733 77.3075 17.1733H70.7382ZM80.3342 17.1733C80.1031 17.1733 79.9298 17.1387 79.8142 17.0693C79.7102 17.0116 79.6409 16.9249 79.6062 16.8093C79.5716 16.6822 79.5542 16.5378 79.5542 16.376V5.85467C79.5542 5.69289 79.5716 5.55422 79.6062 5.43867C79.6525 5.32311 79.7276 5.23644 79.8316 5.17867C79.9471 5.10933 80.1205 5.07467 80.3516 5.07467C80.5827 5.07467 80.7502 5.10933 80.8542 5.17867C80.9698 5.23644 81.0391 5.32311 81.0622 5.43867C81.0969 5.55422 81.1142 5.69867 81.1142 5.872V16.3933C81.1142 16.5551 81.0969 16.6938 81.0622 16.8093C81.0276 16.9249 80.9525 17.0116 80.8369 17.0693C80.7329 17.1387 80.5654 17.1733 80.3342 17.1733ZM88.6507 17.2947C87.8303 17.2947 87.0561 17.1387 86.3281 16.8267C85.6116 16.5147 84.9761 16.0813 84.4214 15.5267C83.8783 14.9604 83.4507 14.3133 83.1387 13.5853C82.8267 12.8573 82.6707 12.0716 82.6707 11.228C82.6707 10.3729 82.8209 9.56978 83.1214 8.81867C83.4218 8.056 83.8378 7.39155 84.3694 6.82533C84.9125 6.25911 85.5365 5.81422 86.2414 5.49067C86.9463 5.16711 87.6974 5.00533 88.4947 5.00533C89.3267 5.00533 90.1009 5.16133 90.8174 5.47333C91.5454 5.78533 92.1752 6.22444 92.7067 6.79067C93.2498 7.34533 93.6774 7.99822 93.9894 8.74933C94.3014 9.50044 94.4574 10.3036 94.4574 11.1587C94.4574 12.0022 94.3014 12.7938 93.9894 13.5333C93.6889 14.2613 93.2729 14.9142 92.7414 15.492C92.2098 16.0582 91.5916 16.5031 90.8867 16.8267C90.1934 17.1387 89.4481 17.2947 88.6507 17.2947ZM88.5467 15.7173C89.1476 15.7173 89.7081 15.6018 90.2281 15.3707C90.7596 15.1396 91.2218 14.816 91.6147 14.4C92.0076 13.9724 92.3138 13.4871 92.5334 12.944C92.7645 12.3893 92.8801 11.7884 92.8801 11.1413C92.8801 10.5173 92.7645 9.93378 92.5334 9.39067C92.3138 8.836 92.0018 8.35067 91.5974 7.93467C91.2045 7.50711 90.7481 7.172 90.2281 6.92933C89.7081 6.68667 89.1534 6.56533 88.5641 6.56533C87.9747 6.56533 87.4201 6.68667 86.9001 6.92933C86.3801 7.172 85.9178 7.50133 85.5134 7.91733C85.1205 8.33333 84.8085 8.81867 84.5774 9.37333C84.3578 9.928 84.2481 10.5231 84.2481 11.1587C84.2481 11.7827 84.3578 12.372 84.5774 12.9267C84.8085 13.4813 85.1205 13.9667 85.5134 14.3827C85.9178 14.7987 86.3743 15.128 86.8827 15.3707C87.4027 15.6018 87.9574 15.7173 88.5467 15.7173Z" fill="black"/>
<path d="M96.7527 17.1907C96.406 17.1907 96.1634 17.1213 96.0247 16.9827C95.886 16.844 95.8167 16.6129 95.8167 16.2893C95.8167 16.0467 95.8456 15.8618 95.9034 15.7347C95.9611 15.596 96.0594 15.4978 96.198 15.44C96.3367 15.3707 96.5216 15.336 96.7527 15.336C97.0994 15.336 97.3363 15.4053 97.4634 15.544C97.602 15.6827 97.6714 15.9253 97.6714 16.272C97.6714 16.5031 97.6425 16.688 97.5847 16.8267C97.5269 16.9538 97.4287 17.0462 97.29 17.104C97.1629 17.1618 96.9838 17.1907 96.7527 17.1907Z" fill="#0997D9" fill-opacity="0.97"/>
</svg>
