<svg width="228" height="49" viewBox="0 0 228 49" fill="none" xmlns="http://www.w3.org/2000/svg">
<g filter="url(#filter0_d_107_24)">
<rect x="40" y="14" width="94" height="23" rx="11.5" fill="#0997D9" fill-opacity="0.97" shape-rendering="crispEdges"/>
</g>
<path d="M12.0126 25.35C11.5693 25.35 11.231 25.28 10.9976 25.14C10.7876 25.0233 10.6476 24.8483 10.5776 24.615C10.5076 24.3583 10.4726 24.0667 10.4726 23.74V2.495C10.4726 2.19167 10.5076 1.92333 10.5776 1.69C10.671 1.45667 10.8343 1.27 11.0676 1.13C11.301 0.989999 11.6276 0.919999 12.0476 0.919999H19.7126C20.8326 0.919999 21.8593 1.095 22.7926 1.445C23.7493 1.77167 24.5776 2.285 25.2776 2.985C26.001 3.66167 26.561 4.49 26.9576 5.47C27.3543 6.45 27.5526 7.58167 27.5526 8.865C27.5526 10.125 27.3543 11.245 26.9576 12.225C26.561 13.205 26.001 14.0333 25.2776 14.71C24.5543 15.3633 23.7143 15.865 22.7576 16.215C21.8243 16.565 20.7976 16.74 19.6776 16.74H13.6576V23.775C13.6576 24.1017 13.611 24.3817 13.5176 24.615C13.4476 24.8483 13.296 25.0233 13.0626 25.14C12.8526 25.28 12.5026 25.35 12.0126 25.35ZM13.6576 13.555H19.7126C20.646 13.555 21.4626 13.38 22.1626 13.03C22.8626 12.6567 23.411 12.12 23.8076 11.42C24.2043 10.6967 24.4026 9.82167 24.4026 8.795C24.4026 7.815 24.216 6.975 23.8426 6.275C23.4693 5.575 22.921 5.03833 22.1976 4.665C21.4976 4.29167 20.6576 4.105 19.6776 4.105H13.6576V13.555Z" fill="#EA0D96"/>
<path d="M42.0631 25.595C40.4065 25.595 38.8431 25.28 37.3731 24.65C35.9265 24.02 34.6431 23.145 33.5231 22.025C32.4265 20.8817 31.5631 19.575 30.9331 18.105C30.3031 16.635 29.9881 15.0483 29.9881 13.345C29.9881 11.6183 30.2915 9.99667 30.8981 8.48C31.5048 6.94 32.3448 5.59833 33.4181 4.455C34.5148 3.31167 35.7748 2.41333 37.1981 1.76C38.6215 1.10667 40.1381 0.779999 41.7481 0.779999C43.4281 0.779999 44.9915 1.095 46.4381 1.725C47.9081 2.355 49.1798 3.24167 50.2531 4.385C51.3498 5.505 52.2131 6.82333 52.8431 8.34C53.4731 9.85667 53.7881 11.4783 53.7881 13.205C53.7881 14.9083 53.4731 16.5067 52.8431 18C52.2365 19.47 51.3965 20.7883 50.3231 21.955C49.2498 23.0983 48.0015 23.9967 46.5781 24.65C45.1781 25.28 43.6731 25.595 42.0631 25.595ZM41.8531 22.41C43.0665 22.41 44.1981 22.1767 45.2481 21.71C46.3215 21.2433 47.2548 20.59 48.0481 19.75C48.8415 18.8867 49.4598 17.9067 49.9031 16.81C50.3698 15.69 50.6031 14.4767 50.6031 13.17C50.6031 11.91 50.3698 10.7317 49.9031 9.635C49.4598 8.515 48.8298 7.535 48.0131 6.695C47.2198 5.83167 46.2981 5.155 45.2481 4.665C44.1981 4.175 43.0781 3.93 41.8881 3.93C40.6981 3.93 39.5781 4.175 38.5281 4.665C37.4781 5.155 36.5448 5.82 35.7281 6.66C34.9348 7.5 34.3048 8.48 33.8381 9.6C33.3948 10.72 33.1731 11.9217 33.1731 13.205C33.1731 14.465 33.3948 15.655 33.8381 16.775C34.3048 17.895 34.9348 18.875 35.7281 19.715C36.5448 20.555 37.4665 21.22 38.4931 21.71C39.5431 22.1767 40.6631 22.41 41.8531 22.41ZM58.9129 25.35C58.4696 25.35 58.1312 25.28 57.8979 25.14C57.6646 25.0233 57.5129 24.8483 57.4429 24.615C57.3962 24.3583 57.3729 24.0667 57.3729 23.74V2.46C57.3729 2.15667 57.4079 1.9 57.4779 1.69C57.5712 1.45667 57.7229 1.27 57.9329 1.13C58.1662 0.989999 58.5046 0.919999 58.9479 0.919999H66.6829C67.8262 0.919999 68.8646 1.095 69.7979 1.445C70.7546 1.77167 71.5829 2.26167 72.2829 2.915C72.9829 3.56833 73.5196 4.39667 73.8929 5.4C74.2896 6.38 74.4879 7.52333 74.4879 8.83C74.4879 9.64667 74.3596 10.4983 74.1029 11.385C73.8462 12.2483 73.4496 13.065 72.9129 13.835C72.3996 14.605 71.7346 15.2467 70.9179 15.76C70.1012 16.2733 69.1096 16.565 67.9429 16.635H60.5229V23.775C60.5229 24.1017 60.4762 24.3817 60.3829 24.615C60.3129 24.8483 60.1612 25.0233 59.9279 25.14C59.7179 25.28 59.3796 25.35 58.9129 25.35ZM73.9279 24.965C73.4379 25.2917 73.0179 25.3967 72.6679 25.28C72.3412 25.1633 72.0262 24.8833 71.7229 24.44L66.1229 15.48L69.5879 14.955L74.4179 22.655C74.6512 23.0283 74.7912 23.3433 74.8379 23.6C74.9079 23.8567 74.8612 24.09 74.6979 24.3C74.5579 24.51 74.3012 24.7317 73.9279 24.965ZM60.5229 13.555H67.4529C67.9896 13.555 68.4912 13.4617 68.9579 13.275C69.4246 13.065 69.8329 12.7617 70.1829 12.365C70.5329 11.9683 70.8129 11.4783 71.0229 10.895C71.2329 10.3117 71.3379 9.61167 71.3379 8.795C71.3379 7.79167 71.1512 6.94 70.7779 6.24C70.4279 5.54 69.9029 5.015 69.2029 4.665C68.5029 4.29167 67.6396 4.105 66.6129 4.105H60.5229V13.555ZM95.6973 0.919999C96.0007 0.919999 96.2457 0.954999 96.4323 1.025C96.6423 1.095 96.8057 1.235 96.9223 1.445C97.039 1.63167 97.0973 1.94667 97.0973 2.39C97.0973 2.81 97.0273 3.125 96.8873 3.335C96.7707 3.545 96.6073 3.685 96.3973 3.755C96.1873 3.80167 95.9307 3.825 95.6273 3.825H88.3823V23.81C88.3823 24.1133 88.3357 24.3817 88.2423 24.615C88.1723 24.8483 88.0207 25.0233 87.7873 25.14C87.5773 25.28 87.2507 25.35 86.8073 25.35C86.3407 25.35 85.9907 25.28 85.7573 25.14C85.5473 25.0233 85.4073 24.8483 85.3373 24.615C85.2907 24.3583 85.2673 24.0783 85.2673 23.775V3.825H77.9173C77.614 3.825 77.3573 3.80167 77.1473 3.755C76.9373 3.685 76.774 3.545 76.6573 3.335C76.5407 3.125 76.4823 2.81 76.4823 2.39C76.4823 1.94667 76.529 1.63167 76.6223 1.445C76.739 1.235 76.9023 1.095 77.1123 1.025C77.3457 0.954999 77.6023 0.919999 77.8823 0.919999H95.6973ZM102.63 25.35C102.163 25.35 101.813 25.28 101.58 25.14C101.37 25.0233 101.23 24.8483 101.16 24.615C101.09 24.3583 101.055 24.0667 101.055 23.74V2.495C101.055 1.88833 101.171 1.48 101.405 1.27C101.661 1.03667 102.105 0.919999 102.735 0.919999H116.805C117.131 0.919999 117.4 0.954999 117.61 1.025C117.843 1.095 118.018 1.24667 118.135 1.48C118.251 1.71333 118.31 2.06333 118.31 2.53C118.31 2.99667 118.24 3.34667 118.1 3.58C117.983 3.79 117.808 3.93 117.575 4C117.341 4.07 117.061 4.105 116.735 4.105H104.205V11.35H112.92C113.246 11.35 113.515 11.385 113.725 11.455C113.958 11.525 114.133 11.665 114.25 11.875C114.366 12.085 114.425 12.4117 114.425 12.855C114.425 13.275 114.366 13.59 114.25 13.8C114.133 14.01 113.958 14.15 113.725 14.22C113.515 14.2667 113.235 14.29 112.885 14.29H104.205V23.775C104.205 24.1017 104.17 24.3817 104.1 24.615C104.03 24.8483 103.878 25.0233 103.645 25.14C103.435 25.28 103.096 25.35 102.63 25.35ZM133.46 25.595C131.803 25.595 130.24 25.28 128.77 24.65C127.323 24.02 126.04 23.145 124.92 22.025C123.823 20.8817 122.96 19.575 122.33 18.105C121.7 16.635 121.385 15.0483 121.385 13.345C121.385 11.6183 121.688 9.99667 122.295 8.48C122.901 6.94 123.741 5.59833 124.815 4.455C125.911 3.31167 127.171 2.41333 128.595 1.76C130.018 1.10667 131.535 0.779999 133.145 0.779999C134.825 0.779999 136.388 1.095 137.835 1.725C139.305 2.355 140.576 3.24167 141.65 4.385C142.746 5.505 143.61 6.82333 144.24 8.34C144.87 9.85667 145.185 11.4783 145.185 13.205C145.185 14.9083 144.87 16.5067 144.24 18C143.633 19.47 142.793 20.7883 141.72 21.955C140.646 23.0983 139.398 23.9967 137.975 24.65C136.575 25.28 135.07 25.595 133.46 25.595ZM133.25 22.41C134.463 22.41 135.595 22.1767 136.645 21.71C137.718 21.2433 138.651 20.59 139.445 19.75C140.238 18.8867 140.856 17.9067 141.3 16.81C141.766 15.69 142 14.4767 142 13.17C142 11.91 141.766 10.7317 141.3 9.635C140.856 8.515 140.226 7.535 139.41 6.695C138.616 5.83167 137.695 5.155 136.645 4.665C135.595 4.175 134.475 3.93 133.285 3.93C132.095 3.93 130.975 4.175 129.925 4.665C128.875 5.155 127.941 5.82 127.125 6.66C126.331 7.5 125.701 8.48 125.235 9.6C124.791 10.72 124.57 11.9217 124.57 13.205C124.57 14.465 124.791 15.655 125.235 16.775C125.701 17.895 126.331 18.875 127.125 19.715C127.941 20.555 128.863 21.22 129.89 21.71C130.94 22.1767 132.06 22.41 133.25 22.41ZM150.029 25.35C149.563 25.35 149.213 25.28 148.979 25.14C148.746 25.0233 148.583 24.8483 148.489 24.615C148.419 24.3817 148.384 24.1017 148.384 23.775V2.53C148.384 2.18 148.419 1.88833 148.489 1.655C148.559 1.42166 148.699 1.24667 148.909 1.13C149.143 0.989999 149.493 0.919999 149.959 0.919999C150.426 0.919999 150.764 0.989999 150.974 1.13C151.208 1.24667 151.359 1.42166 151.429 1.655C151.499 1.88833 151.534 2.16833 151.534 2.495V22.41H163.259C163.563 22.41 163.819 22.445 164.029 22.515C164.239 22.585 164.403 22.725 164.519 22.935C164.659 23.145 164.729 23.46 164.729 23.88C164.729 24.2767 164.671 24.5917 164.554 24.825C164.438 25.035 164.274 25.175 164.064 25.245C163.854 25.315 163.598 25.35 163.294 25.35H150.029ZM169.406 25.35C168.939 25.35 168.589 25.28 168.356 25.14C168.146 25.0233 168.006 24.8483 167.936 24.615C167.866 24.3583 167.831 24.0667 167.831 23.74V2.495C167.831 2.16833 167.866 1.88833 167.936 1.655C168.029 1.42166 168.181 1.24667 168.391 1.13C168.624 0.989999 168.974 0.919999 169.441 0.919999C169.908 0.919999 170.246 0.989999 170.456 1.13C170.689 1.24667 170.829 1.42166 170.876 1.655C170.946 1.88833 170.981 2.18 170.981 2.53V23.775C170.981 24.1017 170.946 24.3817 170.876 24.615C170.806 24.8483 170.654 25.0233 170.421 25.14C170.211 25.28 169.873 25.35 169.406 25.35ZM186.199 25.595C184.542 25.595 182.979 25.28 181.509 24.65C180.062 24.02 178.779 23.145 177.659 22.025C176.562 20.8817 175.699 19.575 175.069 18.105C174.439 16.635 174.124 15.0483 174.124 13.345C174.124 11.6183 174.427 9.99667 175.034 8.48C175.641 6.94 176.481 5.59833 177.554 4.455C178.651 3.31167 179.911 2.41333 181.334 1.76C182.757 1.10667 184.274 0.779999 185.884 0.779999C187.564 0.779999 189.127 1.095 190.574 1.725C192.044 2.355 193.316 3.24167 194.389 4.385C195.486 5.505 196.349 6.82333 196.979 8.34C197.609 9.85667 197.924 11.4783 197.924 13.205C197.924 14.9083 197.609 16.5067 196.979 18C196.372 19.47 195.532 20.7883 194.459 21.955C193.386 23.0983 192.137 23.9967 190.714 24.65C189.314 25.28 187.809 25.595 186.199 25.595ZM185.989 22.41C187.202 22.41 188.334 22.1767 189.384 21.71C190.457 21.2433 191.391 20.59 192.184 19.75C192.977 18.8867 193.596 17.9067 194.039 16.81C194.506 15.69 194.739 14.4767 194.739 13.17C194.739 11.91 194.506 10.7317 194.039 9.635C193.596 8.515 192.966 7.535 192.149 6.695C191.356 5.83167 190.434 5.155 189.384 4.665C188.334 4.175 187.214 3.93 186.024 3.93C184.834 3.93 183.714 4.175 182.664 4.665C181.614 5.155 180.681 5.82 179.864 6.66C179.071 7.5 178.441 8.48 177.974 9.6C177.531 10.72 177.309 11.9217 177.309 13.205C177.309 14.465 177.531 15.655 177.974 16.775C178.441 17.895 179.071 18.875 179.864 19.715C180.681 20.555 181.602 21.22 182.629 21.71C183.679 22.1767 184.799 22.41 185.989 22.41Z" fill="black"/>
<path d="M209.449 26.1C207.449 26.1 206.049 25.7 205.249 24.9C204.449 24.1 204.049 22.7667 204.049 20.9C204.049 19.5 204.215 18.4333 204.549 17.7C204.882 16.9 205.449 16.3333 206.249 16C207.049 15.6 208.115 15.4 209.449 15.4C211.449 15.4 212.815 15.8 213.549 16.6C214.349 17.4 214.749 18.8 214.749 20.8C214.749 22.1333 214.582 23.2 214.249 24C213.915 24.7333 213.349 25.2667 212.549 25.6C211.815 25.9333 210.782 26.1 209.449 26.1Z" fill="#834CB5" fill-opacity="0.984856"/>
<defs>
<filter id="filter0_d_107_24" x="38" y="14" width="98" height="29" filterUnits="userSpaceOnUse" color-interpolation-filters="sRGB">
<feFlood flood-opacity="0" result="BackgroundImageFix"/>
<feColorMatrix in="SourceAlpha" type="matrix" values="0 0 0 0 0 0 0 0 0 0 0 0 0 0 0 0 0 0 127 0" result="hardAlpha"/>
<feOffset dy="4"/>
<feGaussianBlur stdDeviation="1"/>
<feComposite in2="hardAlpha" operator="out"/>
<feColorMatrix type="matrix" values="0 0 0 0 0 0 0 0 0 0 0 0 0 0 0 0 0 0 0.07 0"/>
<feBlend mode="normal" in2="BackgroundImageFix" result="effect1_dropShadow_107_24"/>
<feBlend mode="normal" in="SourceGraphic" in2="effect1_dropShadow_107_24" result="shape"/>
</filter>
</defs>
</svg>
