<svg width="149" height="44" viewBox="0 0 149 44" fill="none" xmlns="http://www.w3.org/2000/svg">
<g clip-path="url(#clip0_149_60)">
<path d="M25.1389 31.2C24.8856 31.2 24.6922 31.16 24.5589 31.08C24.4389 31.0133 24.3589 30.9133 24.3189 30.78C24.2789 30.6333 24.2589 30.4667 24.2589 30.28V18.14C24.2589 17.9667 24.2789 17.8133 24.3189 17.68C24.3722 17.5467 24.4656 17.44 24.5989 17.36C24.7322 17.28 24.9189 17.24 25.1589 17.24H29.5389C30.1789 17.24 30.7656 17.34 31.2989 17.54C31.8456 17.7267 32.3189 18.02 32.7189 18.42C33.1322 18.8067 33.4522 19.28 33.6789 19.84C33.9056 20.4 34.0189 21.0467 34.0189 21.78C34.0189 22.5 33.9056 23.14 33.6789 23.7C33.4522 24.26 33.1322 24.7333 32.7189 25.12C32.3056 25.4933 31.8256 25.78 31.2789 25.98C30.7456 26.18 30.1589 26.28 29.5189 26.28H26.0789V30.3C26.0789 30.4867 26.0522 30.6467 25.9989 30.78C25.9589 30.9133 25.8722 31.0133 25.7389 31.08C25.6189 31.16 25.4189 31.2 25.1389 31.2ZM26.0789 24.46H29.5389C30.0722 24.46 30.5389 24.36 30.9389 24.16C31.3389 23.9467 31.6522 23.64 31.8789 23.24C32.1056 22.8267 32.2189 22.3267 32.2189 21.74C32.2189 21.18 32.1122 20.7 31.8989 20.3C31.6856 19.9 31.3722 19.5933 30.9589 19.38C30.5589 19.1667 30.0789 19.06 29.5189 19.06H26.0789V24.46Z" fill="#FF0090"/>
<path d="M42.3106 31.34C41.364 31.34 40.4706 31.16 39.6306 30.8C38.804 30.44 38.0706 29.94 37.4306 29.3C36.804 28.6467 36.3106 27.9 35.9506 27.06C35.5906 26.22 35.4106 25.3133 35.4106 24.34C35.4106 23.3533 35.584 22.4267 35.9306 21.56C36.2773 20.68 36.7573 19.9133 37.3706 19.26C37.9973 18.6067 38.7173 18.0933 39.5306 17.72C40.344 17.3467 41.2106 17.16 42.1306 17.16C43.0906 17.16 43.984 17.34 44.8106 17.7C45.6506 18.06 46.3773 18.5667 46.9906 19.22C47.6173 19.86 48.1106 20.6133 48.4706 21.48C48.8306 22.3467 49.0106 23.2733 49.0106 24.26C49.0106 25.2333 48.8306 26.1467 48.4706 27C48.124 27.84 47.644 28.5933 47.0306 29.26C46.4173 29.9133 45.704 30.4267 44.8906 30.8C44.0906 31.16 43.2306 31.34 42.3106 31.34ZM42.1906 29.52C42.884 29.52 43.5306 29.3867 44.1306 29.12C44.744 28.8533 45.2773 28.48 45.7306 28C46.184 27.5067 46.5373 26.9467 46.7906 26.32C47.0573 25.68 47.1906 24.9867 47.1906 24.24C47.1906 23.52 47.0573 22.8467 46.7906 22.22C46.5373 21.58 46.1773 21.02 45.7106 20.54C45.2573 20.0467 44.7306 19.66 44.1306 19.38C43.5306 19.1 42.8906 18.96 42.2106 18.96C41.5306 18.96 40.8906 19.1 40.2906 19.38C39.6906 19.66 39.1573 20.04 38.6906 20.52C38.2373 21 37.8773 21.56 37.6106 22.2C37.3573 22.84 37.2306 23.5267 37.2306 24.26C37.2306 24.98 37.3573 25.66 37.6106 26.3C37.8773 26.94 38.2373 27.5 38.6906 27.98C39.1573 28.46 39.684 28.84 40.2706 29.12C40.8706 29.3867 41.5106 29.52 42.1906 29.52ZM51.9391 31.2C51.6857 31.2 51.4924 31.16 51.3591 31.08C51.2257 31.0133 51.1391 30.9133 51.0991 30.78C51.0724 30.6333 51.0591 30.4667 51.0591 30.28V18.12C51.0591 17.9467 51.0791 17.8 51.1191 17.68C51.1724 17.5467 51.2591 17.44 51.3791 17.36C51.5124 17.28 51.7057 17.24 51.9591 17.24H56.3791C57.0324 17.24 57.6257 17.34 58.1591 17.54C58.7057 17.7267 59.1791 18.0067 59.5791 18.38C59.9791 18.7533 60.2857 19.2267 60.4991 19.8C60.7257 20.36 60.8391 21.0133 60.8391 21.76C60.8391 22.2267 60.7657 22.7133 60.6191 23.22C60.4724 23.7133 60.2457 24.18 59.9391 24.62C59.6457 25.06 59.2657 25.4267 58.7991 25.72C58.3324 26.0133 57.7657 26.18 57.0991 26.22H52.8591V30.3C52.8591 30.4867 52.8324 30.6467 52.7791 30.78C52.7391 30.9133 52.6524 31.0133 52.5191 31.08C52.3991 31.16 52.2057 31.2 51.9391 31.2ZM60.5191 30.98C60.2391 31.1667 59.9991 31.2267 59.7991 31.16C59.6124 31.0933 59.4324 30.9333 59.2591 30.68L56.0591 25.56L58.0391 25.26L60.7991 29.66C60.9324 29.8733 61.0124 30.0533 61.0391 30.2C61.0791 30.3467 61.0524 30.48 60.9591 30.6C60.8791 30.72 60.7324 30.8467 60.5191 30.98ZM52.8591 24.46H56.8191C57.1257 24.46 57.4124 24.4067 57.6791 24.3C57.9457 24.18 58.1791 24.0067 58.3791 23.78C58.5791 23.5533 58.7391 23.2733 58.8591 22.94C58.9791 22.6067 59.0391 22.2067 59.0391 21.74C59.0391 21.1667 58.9324 20.68 58.7191 20.28C58.5191 19.88 58.2191 19.58 57.8191 19.38C57.4191 19.1667 56.9257 19.06 56.3391 19.06H52.8591V24.46ZM72.9588 17.24C73.1321 17.24 73.2721 17.26 73.3788 17.3C73.4988 17.34 73.5921 17.42 73.6588 17.54C73.7254 17.6467 73.7588 17.8267 73.7588 18.08C73.7588 18.32 73.7188 18.5 73.6388 18.62C73.5721 18.74 73.4788 18.82 73.3588 18.86C73.2388 18.8867 73.0921 18.9 72.9188 18.9H68.7788V30.32C68.7788 30.4933 68.7521 30.6467 68.6988 30.78C68.6588 30.9133 68.5721 31.0133 68.4388 31.08C68.3188 31.16 68.1321 31.2 67.8788 31.2C67.6121 31.2 67.4121 31.16 67.2788 31.08C67.1588 31.0133 67.0788 30.9133 67.0388 30.78C67.0121 30.6333 66.9988 30.4733 66.9988 30.3V18.9H62.7988C62.6254 18.9 62.4788 18.8867 62.3588 18.86C62.2388 18.82 62.1454 18.74 62.0788 18.62C62.0121 18.5 61.9788 18.32 61.9788 18.08C61.9788 17.8267 62.0054 17.6467 62.0588 17.54C62.1254 17.42 62.2188 17.34 62.3388 17.3C62.4721 17.26 62.6188 17.24 62.7788 17.24H72.9588ZM76.92 31.2C76.6533 31.2 76.4533 31.16 76.32 31.08C76.2 31.0133 76.12 30.9133 76.08 30.78C76.04 30.6333 76.02 30.4667 76.02 30.28V18.14C76.02 17.7933 76.0867 17.56 76.22 17.44C76.3667 17.3067 76.62 17.24 76.98 17.24H85.02C85.2067 17.24 85.36 17.26 85.48 17.3C85.6133 17.34 85.7133 17.4267 85.78 17.56C85.8467 17.6933 85.88 17.8933 85.88 18.16C85.88 18.4267 85.84 18.6267 85.76 18.76C85.6933 18.88 85.5933 18.96 85.46 19C85.3267 19.04 85.1667 19.06 84.98 19.06H77.82V23.2H82.8C82.9867 23.2 83.14 23.22 83.26 23.26C83.3933 23.3 83.4933 23.38 83.56 23.5C83.6267 23.62 83.66 23.8067 83.66 24.06C83.66 24.3 83.6267 24.48 83.56 24.6C83.4933 24.72 83.3933 24.8 83.26 24.84C83.14 24.8667 82.98 24.88 82.78 24.88H77.82V30.3C77.82 30.4867 77.8 30.6467 77.76 30.78C77.72 30.9133 77.6333 31.0133 77.5 31.08C77.38 31.16 77.1867 31.2 76.92 31.2ZM94.5372 31.34C93.5905 31.34 92.6972 31.16 91.8572 30.8C91.0305 30.44 90.2972 29.94 89.6572 29.3C89.0305 28.6467 88.5372 27.9 88.1772 27.06C87.8172 26.22 87.6372 25.3133 87.6372 24.34C87.6372 23.3533 87.8105 22.4267 88.1572 21.56C88.5039 20.68 88.9839 19.9133 89.5972 19.26C90.2239 18.6067 90.9439 18.0933 91.7572 17.72C92.5705 17.3467 93.4372 17.16 94.3572 17.16C95.3172 17.16 96.2105 17.34 97.0372 17.7C97.8772 18.06 98.6039 18.5667 99.2172 19.22C99.8439 19.86 100.337 20.6133 100.697 21.48C101.057 22.3467 101.237 23.2733 101.237 24.26C101.237 25.2333 101.057 26.1467 100.697 27C100.351 27.84 99.8705 28.5933 99.2572 29.26C98.6439 29.9133 97.9305 30.4267 97.1172 30.8C96.3172 31.16 95.4572 31.34 94.5372 31.34ZM94.4172 29.52C95.1105 29.52 95.7572 29.3867 96.3572 29.12C96.9705 28.8533 97.5039 28.48 97.9572 28C98.4105 27.5067 98.7639 26.9467 99.0172 26.32C99.2839 25.68 99.4172 24.9867 99.4172 24.24C99.4172 23.52 99.2839 22.8467 99.0172 22.22C98.7639 21.58 98.4039 21.02 97.9372 20.54C97.4839 20.0467 96.9572 19.66 96.3572 19.38C95.7572 19.1 95.1172 18.96 94.4372 18.96C93.7572 18.96 93.1172 19.1 92.5172 19.38C91.9172 19.66 91.3839 20.04 90.9172 20.52C90.4639 21 90.1039 21.56 89.8372 22.2C89.5839 22.84 89.4572 23.5267 89.4572 24.26C89.4572 24.98 89.5839 25.66 89.8372 26.3C90.1039 26.94 90.4639 27.5 90.9172 27.98C91.3839 28.46 91.9105 28.84 92.4972 29.12C93.0972 29.3867 93.7372 29.52 94.4172 29.52ZM104.006 31.2C103.739 31.2 103.539 31.16 103.406 31.08C103.272 31.0133 103.179 30.9133 103.126 30.78C103.086 30.6467 103.066 30.4867 103.066 30.3V18.16C103.066 17.96 103.086 17.7933 103.126 17.66C103.166 17.5267 103.246 17.4267 103.366 17.36C103.499 17.28 103.699 17.24 103.966 17.24C104.232 17.24 104.426 17.28 104.546 17.36C104.679 17.4267 104.766 17.5267 104.806 17.66C104.846 17.7933 104.866 17.9533 104.866 18.14V29.52H111.566C111.739 29.52 111.886 29.54 112.006 29.58C112.126 29.62 112.219 29.7 112.286 29.82C112.366 29.94 112.406 30.12 112.406 30.36C112.406 30.5867 112.372 30.7667 112.306 30.9C112.239 31.02 112.146 31.1 112.026 31.14C111.906 31.18 111.759 31.2 111.586 31.2H104.006ZM115.078 31.2C114.811 31.2 114.611 31.16 114.478 31.08C114.358 31.0133 114.278 30.9133 114.238 30.78C114.198 30.6333 114.178 30.4667 114.178 30.28V18.14C114.178 17.9533 114.198 17.7933 114.238 17.66C114.291 17.5267 114.378 17.4267 114.498 17.36C114.631 17.28 114.831 17.24 115.098 17.24C115.365 17.24 115.558 17.28 115.678 17.36C115.811 17.4267 115.891 17.5267 115.918 17.66C115.958 17.7933 115.978 17.96 115.978 18.16V30.3C115.978 30.4867 115.958 30.6467 115.918 30.78C115.878 30.9133 115.791 31.0133 115.658 31.08C115.538 31.16 115.345 31.2 115.078 31.2ZM124.674 31.34C123.727 31.34 122.834 31.16 121.994 30.8C121.167 30.44 120.434 29.94 119.794 29.3C119.167 28.6467 118.674 27.9 118.314 27.06C117.954 26.22 117.774 25.3133 117.774 24.34C117.774 23.3533 117.947 22.4267 118.294 21.56C118.641 20.68 119.121 19.9133 119.734 19.26C120.361 18.6067 121.081 18.0933 121.894 17.72C122.707 17.3467 123.574 17.16 124.494 17.16C125.454 17.16 126.347 17.34 127.174 17.7C128.014 18.06 128.741 18.5667 129.354 19.22C129.981 19.86 130.474 20.6133 130.834 21.48C131.194 22.3467 131.374 23.2733 131.374 24.26C131.374 25.2333 131.194 26.1467 130.834 27C130.487 27.84 130.007 28.5933 129.394 29.26C128.781 29.9133 128.067 30.4267 127.254 30.8C126.454 31.16 125.594 31.34 124.674 31.34ZM124.554 29.52C125.247 29.52 125.894 29.3867 126.494 29.12C127.107 28.8533 127.641 28.48 128.094 28C128.547 27.5067 128.901 26.9467 129.154 26.32C129.421 25.68 129.554 24.9867 129.554 24.24C129.554 23.52 129.421 22.8467 129.154 22.22C128.901 21.58 128.541 21.02 128.074 20.54C127.621 20.0467 127.094 19.66 126.494 19.38C125.894 19.1 125.254 18.96 124.574 18.96C123.894 18.96 123.254 19.1 122.654 19.38C122.054 19.66 121.521 20.04 121.054 20.52C120.601 21 120.241 21.56 119.974 22.2C119.721 22.84 119.594 23.5267 119.594 24.26C119.594 24.98 119.721 25.66 119.974 26.3C120.241 26.94 120.601 27.5 121.054 27.98C121.521 28.46 122.047 28.84 122.634 29.12C123.234 29.3867 123.874 29.52 124.554 29.52Z" fill="black"/>
<path d="M134.022 31.22C133.622 31.22 133.342 31.14 133.182 30.98C133.022 30.82 132.942 30.5533 132.942 30.18C132.942 29.9 132.976 29.6867 133.042 29.54C133.109 29.38 133.222 29.2667 133.382 29.2C133.542 29.12 133.756 29.08 134.022 29.08C134.422 29.08 134.696 29.16 134.842 29.32C135.002 29.48 135.082 29.76 135.082 30.16C135.082 30.4267 135.049 30.64 134.982 30.8C134.916 30.9467 134.802 31.0533 134.642 31.12C134.496 31.1867 134.289 31.22 134.022 31.22Z" fill="#0997D9" fill-opacity="0.97"/>
<path d="M15.4414 11.6104V13.4795H26.1621V11.6104H15.4414ZM19.8027 7.04492V18.4316H21.79V7.04492H19.8027Z" fill="#181E4B" fill-opacity="0.98"/>
<path d="M0.441406 6.61035V8.47949H11.1621V6.61035H0.441406ZM4.80273 2.04492V13.4316H6.79004V2.04492H4.80273Z" fill="#FFB800" fill-opacity="0.98"/>
<path d="M6.44141 19.6104V21.4795H17.1621V19.6104H6.44141ZM10.8027 15.0449V26.4316H12.79V15.0449H10.8027Z" fill="#0997D9" fill-opacity="0.97"/>
</g>
<defs>
<clipPath id="clip0_149_60">
<rect width="149" height="44" fill="white"/>
</clipPath>
</defs>
</svg>
