<svg width="55" height="9" viewBox="0 0 55 9" fill="none" xmlns="http://www.w3.org/2000/svg">
<g clip-path="url(#clip0_144_18)">
<path d="M54 5C54 6.65685 52.6569 8 51 8C49.3431 8 48 6.65685 48 5C48 3.34315 49.3431 2 51 2C52.6569 2 54 3.34315 54 5Z" fill="#FF0191"/>
<path d="M1.37414 8.1C1.24747 8.1 1.15081 8.08 1.08414 8.04C1.02414 8.00667 0.984141 7.95667 0.964141 7.89C0.944141 7.81667 0.934141 7.73333 0.934141 7.64V1.57C0.934141 1.48333 0.944141 1.40667 0.964141 1.34C0.990807 1.27333 1.03747 1.22 1.10414 1.18C1.17081 1.14 1.26414 1.12 1.38414 1.12H3.57414C3.89414 1.12 4.18747 1.17 4.45414 1.27C4.72747 1.36333 4.96414 1.51 5.16414 1.71C5.37081 1.90333 5.53081 2.14 5.64414 2.42C5.75747 2.7 5.81414 3.02333 5.81414 3.39C5.81414 3.75 5.75747 4.07 5.64414 4.35C5.53081 4.63 5.37081 4.86667 5.16414 5.06C4.95747 5.24667 4.71747 5.39 4.44414 5.49C4.17747 5.59 3.88414 5.64 3.56414 5.64H1.84414V7.65C1.84414 7.74333 1.83081 7.82333 1.80414 7.89C1.78414 7.95667 1.74081 8.00667 1.67414 8.04C1.61414 8.08 1.51414 8.1 1.37414 8.1ZM1.84414 4.73H3.57414C3.84081 4.73 4.07414 4.68 4.27414 4.58C4.47414 4.47333 4.63081 4.32 4.74414 4.12C4.85747 3.91333 4.91414 3.66333 4.91414 3.37C4.91414 3.09 4.86081 2.85 4.75414 2.65C4.64747 2.45 4.49081 2.29667 4.28414 2.19C4.08414 2.08333 3.84414 2.03 3.56414 2.03H1.84414V4.73Z" fill="#EA0D96"/>
<path d="M9.96 8.17C9.48667 8.17 9.04 8.08 8.62 7.9C8.20667 7.72 7.84 7.47 7.52 7.15C7.20667 6.82333 6.96 6.45 6.78 6.03C6.6 5.61 6.51 5.15667 6.51 4.67C6.51 4.17667 6.59667 3.71333 6.77 3.28C6.94333 2.84 7.18333 2.45667 7.49 2.13C7.80333 1.80333 8.16333 1.54667 8.57 1.36C8.97667 1.17333 9.41 1.08 9.87 1.08C10.35 1.08 10.7967 1.17 11.21 1.35C11.63 1.53 11.9933 1.78333 12.3 2.11C12.6133 2.43 12.86 2.80667 13.04 3.24C13.22 3.67333 13.31 4.13667 13.31 4.63C13.31 5.11667 13.22 5.57333 13.04 6C12.8667 6.42 12.6267 6.79667 12.32 7.13C12.0133 7.45667 11.6567 7.71333 11.25 7.9C10.85 8.08 10.42 8.17 9.96 8.17ZM9.9 7.26C10.2467 7.26 10.57 7.19333 10.87 7.06C11.1767 6.92667 11.4433 6.74 11.67 6.5C11.8967 6.25333 12.0733 5.97333 12.2 5.66C12.3333 5.34 12.4 4.99333 12.4 4.62C12.4 4.26 12.3333 3.92333 12.2 3.61C12.0733 3.29 11.8933 3.01 11.66 2.77C11.4333 2.52333 11.17 2.33 10.87 2.19C10.57 2.05 10.25 1.98 9.91 1.98C9.57 1.98 9.25 2.05 8.95 2.19C8.65 2.33 8.38333 2.52 8.15 2.76C7.92333 3 7.74333 3.28 7.61 3.6C7.48333 3.92 7.42 4.26333 7.42 4.63C7.42 4.99 7.48333 5.33 7.61 5.65C7.74333 5.97 7.92333 6.25 8.15 6.49C8.38333 6.73 8.64667 6.92 8.94 7.06C9.24 7.19333 9.56 7.26 9.9 7.26ZM14.7742 8.1C14.6476 8.1 14.5509 8.08 14.4842 8.04C14.4176 8.00667 14.3742 7.95667 14.3542 7.89C14.3409 7.81667 14.3342 7.73333 14.3342 7.64V1.56C14.3342 1.47333 14.3442 1.4 14.3642 1.34C14.3909 1.27333 14.4342 1.22 14.4942 1.18C14.5609 1.14 14.6576 1.12 14.7842 1.12H16.9942C17.3209 1.12 17.6176 1.17 17.8842 1.27C18.1576 1.36333 18.3942 1.50333 18.5942 1.69C18.7942 1.87667 18.9476 2.11333 19.0542 2.4C19.1676 2.68 19.2242 3.00667 19.2242 3.38C19.2242 3.61333 19.1876 3.85667 19.1142 4.11C19.0409 4.35667 18.9276 4.59 18.7742 4.81C18.6276 5.03 18.4376 5.21333 18.2042 5.36C17.9709 5.50667 17.6876 5.59 17.3542 5.61H15.2342V7.65C15.2342 7.74333 15.2209 7.82333 15.1942 7.89C15.1742 7.95667 15.1309 8.00667 15.0642 8.04C15.0042 8.08 14.9076 8.1 14.7742 8.1ZM19.0642 7.99C18.9242 8.08333 18.8042 8.11333 18.7042 8.08C18.6109 8.04667 18.5209 7.96667 18.4342 7.84L16.8342 5.28L17.8242 5.13L19.2042 7.33C19.2709 7.43667 19.3109 7.52667 19.3242 7.6C19.3442 7.67333 19.3309 7.74 19.2842 7.8C19.2442 7.86 19.1709 7.92333 19.0642 7.99ZM15.2342 4.73H17.2142C17.3676 4.73 17.5109 4.70333 17.6442 4.65C17.7776 4.59 17.8942 4.50333 17.9942 4.39C18.0942 4.27667 18.1742 4.13667 18.2342 3.97C18.2942 3.80333 18.3242 3.60333 18.3242 3.37C18.3242 3.08333 18.2709 2.84 18.1642 2.64C18.0642 2.44 17.9142 2.29 17.7142 2.19C17.5142 2.08333 17.2676 2.03 16.9742 2.03H15.2342V4.73ZM25.2841 1.12C25.3707 1.12 25.4407 1.13 25.4941 1.15C25.5541 1.17 25.6007 1.21 25.6341 1.27C25.6674 1.32333 25.6841 1.41333 25.6841 1.54C25.6841 1.66 25.6641 1.75 25.6241 1.81C25.5907 1.87 25.5441 1.91 25.4841 1.93C25.4241 1.94333 25.3507 1.95 25.2641 1.95H23.1941V7.66C23.1941 7.74667 23.1807 7.82333 23.1541 7.89C23.1341 7.95667 23.0907 8.00667 23.0241 8.04C22.9641 8.08 22.8707 8.1 22.7441 8.1C22.6107 8.1 22.5107 8.08 22.4441 8.04C22.3841 8.00667 22.3441 7.95667 22.3241 7.89C22.3107 7.81667 22.3041 7.73667 22.3041 7.65V1.95H20.2041C20.1174 1.95 20.0441 1.94333 19.9841 1.93C19.9241 1.91 19.8774 1.87 19.8441 1.81C19.8107 1.75 19.7941 1.66 19.7941 1.54C19.7941 1.41333 19.8074 1.32333 19.8341 1.27C19.8674 1.21 19.9141 1.17 19.9741 1.15C20.0407 1.13 20.1141 1.12 20.1941 1.12H25.2841ZM27.2647 8.1C27.1314 8.1 27.0314 8.08 26.9647 8.04C26.9047 8.00667 26.8647 7.95667 26.8447 7.89C26.8247 7.81667 26.8147 7.73333 26.8147 7.64V1.57C26.8147 1.39667 26.848 1.28 26.9147 1.22C26.988 1.15333 27.1147 1.12 27.2947 1.12H31.3147C31.408 1.12 31.4847 1.13 31.5447 1.15C31.6114 1.17 31.6614 1.21333 31.6947 1.28C31.728 1.34667 31.7447 1.44667 31.7447 1.58C31.7447 1.71333 31.7247 1.81333 31.6847 1.88C31.6514 1.94 31.6014 1.98 31.5347 2C31.468 2.02 31.388 2.03 31.2947 2.03H27.7147V4.1H30.2047C30.298 4.1 30.3747 4.11 30.4347 4.13C30.5014 4.15 30.5514 4.19 30.5847 4.25C30.618 4.31 30.6347 4.40333 30.6347 4.53C30.6347 4.65 30.618 4.74 30.5847 4.8C30.5514 4.86 30.5014 4.9 30.4347 4.92C30.3747 4.93333 30.2947 4.94 30.1947 4.94H27.7147V7.65C27.7147 7.74333 27.7047 7.82333 27.6847 7.89C27.6647 7.95667 27.6214 8.00667 27.5547 8.04C27.4947 8.08 27.398 8.1 27.2647 8.1ZM36.0733 8.17C35.5999 8.17 35.1533 8.08 34.7333 7.9C34.3199 7.72 33.9533 7.47 33.6333 7.15C33.3199 6.82333 33.0733 6.45 32.8933 6.03C32.7133 5.61 32.6233 5.15667 32.6233 4.67C32.6233 4.17667 32.7099 3.71333 32.8833 3.28C33.0566 2.84 33.2966 2.45667 33.6033 2.13C33.9166 1.80333 34.2766 1.54667 34.6833 1.36C35.0899 1.17333 35.5233 1.08 35.9833 1.08C36.4633 1.08 36.9099 1.17 37.3233 1.35C37.7433 1.53 38.1066 1.78333 38.4133 2.11C38.7266 2.43 38.9733 2.80667 39.1533 3.24C39.3333 3.67333 39.4233 4.13667 39.4233 4.63C39.4233 5.11667 39.3333 5.57333 39.1533 6C38.9799 6.42 38.7399 6.79667 38.4333 7.13C38.1266 7.45667 37.7699 7.71333 37.3633 7.9C36.9633 8.08 36.5333 8.17 36.0733 8.17ZM36.0133 7.26C36.3599 7.26 36.6833 7.19333 36.9833 7.06C37.2899 6.92667 37.5566 6.74 37.7833 6.5C38.0099 6.25333 38.1866 5.97333 38.3133 5.66C38.4466 5.34 38.5133 4.99333 38.5133 4.62C38.5133 4.26 38.4466 3.92333 38.3133 3.61C38.1866 3.29 38.0066 3.01 37.7733 2.77C37.5466 2.52333 37.2833 2.33 36.9833 2.19C36.6833 2.05 36.3633 1.98 36.0233 1.98C35.6833 1.98 35.3633 2.05 35.0633 2.19C34.7633 2.33 34.4966 2.52 34.2633 2.76C34.0366 3 33.8566 3.28 33.7233 3.6C33.5966 3.92 33.5333 4.26333 33.5333 4.63C33.5333 4.99 33.5966 5.33 33.7233 5.65C33.8566 5.97 34.0366 6.25 34.2633 6.49C34.4966 6.73 34.7599 6.92 35.0533 7.06C35.3533 7.19333 35.6733 7.26 36.0133 7.26ZM40.8075 8.1C40.6742 8.1 40.5742 8.08 40.5075 8.04C40.4408 8.00667 40.3942 7.95667 40.3675 7.89C40.3475 7.82333 40.3375 7.74333 40.3375 7.65V1.58C40.3375 1.48 40.3475 1.39667 40.3675 1.33C40.3875 1.26333 40.4275 1.21333 40.4875 1.18C40.5542 1.14 40.6542 1.12 40.7875 1.12C40.9208 1.12 41.0175 1.14 41.0775 1.18C41.1442 1.21333 41.1875 1.26333 41.2075 1.33C41.2275 1.39667 41.2375 1.47667 41.2375 1.57V7.26H44.5875C44.6742 7.26 44.7475 7.27 44.8075 7.29C44.8675 7.31 44.9142 7.35 44.9475 7.41C44.9875 7.47 45.0075 7.56 45.0075 7.68C45.0075 7.79333 44.9908 7.88333 44.9575 7.95C44.9242 8.01 44.8775 8.05 44.8175 8.07C44.7575 8.09 44.6842 8.1 44.5975 8.1H40.8075ZM46.3437 8.1C46.2103 8.1 46.1103 8.08 46.0437 8.04C45.9837 8.00667 45.9437 7.95667 45.9237 7.89C45.9037 7.81667 45.8937 7.73333 45.8937 7.64V1.57C45.8937 1.47667 45.9037 1.39667 45.9237 1.33C45.9503 1.26333 45.9937 1.21333 46.0537 1.18C46.1203 1.14 46.2203 1.12 46.3537 1.12C46.487 1.12 46.5837 1.14 46.6437 1.18C46.7103 1.21333 46.7503 1.26333 46.7637 1.33C46.7837 1.39667 46.7937 1.48 46.7937 1.58V7.65C46.7937 7.74333 46.7837 7.82333 46.7637 7.89C46.7437 7.95667 46.7003 8.00667 46.6337 8.04C46.5737 8.08 46.477 8.1 46.3437 8.1ZM51.1416 8.17C50.6683 8.17 50.2216 8.08 49.8016 7.9C49.3883 7.72 49.0216 7.47 48.7016 7.15C48.3883 6.82333 48.1416 6.45 47.9616 6.03C47.7816 5.61 47.6916 5.15667 47.6916 4.67C47.6916 4.17667 47.7783 3.71333 47.9516 3.28C48.125 2.84 48.365 2.45667 48.6716 2.13C48.985 1.80333 49.345 1.54667 49.7516 1.36C50.1583 1.17333 50.5916 1.08 51.0516 1.08C51.5316 1.08 51.9783 1.17 52.3916 1.35C52.8116 1.53 53.175 1.78333 53.4816 2.11C53.795 2.43 54.0416 2.80667 54.2216 3.24C54.4016 3.67333 54.4916 4.13667 54.4916 4.63C54.4916 5.11667 54.4016 5.57333 54.2216 6C54.0483 6.42 53.8083 6.79667 53.5016 7.13C53.195 7.45667 52.8383 7.71333 52.4316 7.9C52.0316 8.08 51.6016 8.17 51.1416 8.17ZM51.0816 7.26C51.4283 7.26 51.7516 7.19333 52.0516 7.06C52.3583 6.92667 52.625 6.74 52.8516 6.5C53.0783 6.25333 53.255 5.97333 53.3816 5.66C53.515 5.34 53.5816 4.99333 53.5816 4.62C53.5816 4.26 53.515 3.92333 53.3816 3.61C53.255 3.29 53.075 3.01 52.8416 2.77C52.615 2.52333 52.3516 2.33 52.0516 2.19C51.7516 2.05 51.4316 1.98 51.0916 1.98C50.7516 1.98 50.4316 2.05 50.1316 2.19C49.8316 2.33 49.565 2.52 49.3316 2.76C49.105 3 48.925 3.28 48.7916 3.6C48.665 3.92 48.6016 4.26333 48.6016 4.63C48.6016 4.99 48.665 5.33 48.7916 5.65C48.925 5.97 49.105 6.25 49.3316 6.49C49.565 6.73 49.8283 6.92 50.1216 7.06C50.4216 7.19333 50.7416 7.26 51.0816 7.26Z" fill="black"/>
</g>
<defs>
<clipPath id="clip0_144_18">
<rect width="55" height="9" fill="white"/>
</clipPath>
</defs>
</svg>
