<svg width="206" height="27" viewBox="0 0 206 27" fill="none" xmlns="http://www.w3.org/2000/svg">
<path d="M2.51262 25.35C2.06928 25.35 1.73095 25.28 1.49762 25.14C1.28762 25.0233 1.14762 24.8483 1.07762 24.615C1.00762 24.3583 0.972617 24.0667 0.972617 23.74V2.495C0.972617 2.19167 1.00762 1.92333 1.07762 1.69C1.17095 1.45667 1.33428 1.27 1.56762 1.13C1.80095 0.989999 2.12762 0.919999 2.54762 0.919999H10.2126C11.3326 0.919999 12.3593 1.095 13.2926 1.445C14.2493 1.77167 15.0776 2.285 15.7776 2.985C16.501 3.66167 17.061 4.49 17.4576 5.47C17.8543 6.45 18.0526 7.58167 18.0526 8.865C18.0526 10.125 17.8543 11.245 17.4576 12.225C17.061 13.205 16.501 14.0333 15.7776 14.71C15.0543 15.3633 14.2143 15.865 13.2576 16.215C12.3243 16.565 11.2976 16.74 10.1776 16.74H4.15762V23.775C4.15762 24.1017 4.11095 24.3817 4.01762 24.615C3.94762 24.8483 3.79595 25.0233 3.56262 25.14C3.35262 25.28 3.00262 25.35 2.51262 25.35ZM4.15762 13.555H10.2126C11.146 13.555 11.9626 13.38 12.6626 13.03C13.3626 12.6567 13.911 12.12 14.3076 11.42C14.7043 10.6967 14.9026 9.82167 14.9026 8.795C14.9026 7.815 14.716 6.975 14.3426 6.275C13.9693 5.575 13.421 5.03833 12.6976 4.665C11.9976 4.29167 11.1576 4.105 10.1776 4.105H4.15762V13.555Z" fill="#EA0D96"/>
<path d="M32.5631 25.595C30.9065 25.595 29.3431 25.28 27.8731 24.65C26.4265 24.02 25.1431 23.145 24.0231 22.025C22.9265 20.8817 22.0631 19.575 21.4331 18.105C20.8031 16.635 20.4881 15.0483 20.4881 13.345C20.4881 11.6183 20.7915 9.99667 21.3981 8.48C22.0048 6.94 22.8448 5.59833 23.9181 4.455C25.0148 3.31167 26.2748 2.41333 27.6981 1.76C29.1215 1.10667 30.6381 0.779999 32.2481 0.779999C33.9281 0.779999 35.4915 1.095 36.9381 1.725C38.4081 2.355 39.6798 3.24167 40.7531 4.385C41.8498 5.505 42.7131 6.82333 43.3431 8.34C43.9731 9.85667 44.2881 11.4783 44.2881 13.205C44.2881 14.9083 43.9731 16.5067 43.3431 18C42.7365 19.47 41.8965 20.7883 40.8231 21.955C39.7498 23.0983 38.5015 23.9967 37.0781 24.65C35.6781 25.28 34.1731 25.595 32.5631 25.595ZM32.3531 22.41C33.5665 22.41 34.6981 22.1767 35.7481 21.71C36.8215 21.2433 37.7548 20.59 38.5481 19.75C39.3415 18.8867 39.9598 17.9067 40.4031 16.81C40.8698 15.69 41.1031 14.4767 41.1031 13.17C41.1031 11.91 40.8698 10.7317 40.4031 9.635C39.9598 8.515 39.3298 7.535 38.5131 6.695C37.7198 5.83167 36.7981 5.155 35.7481 4.665C34.6981 4.175 33.5781 3.93 32.3881 3.93C31.1981 3.93 30.0781 4.175 29.0281 4.665C27.9781 5.155 27.0448 5.82 26.2281 6.66C25.4348 7.5 24.8048 8.48 24.3381 9.6C23.8948 10.72 23.6731 11.9217 23.6731 13.205C23.6731 14.465 23.8948 15.655 24.3381 16.775C24.8048 17.895 25.4348 18.875 26.2281 19.715C27.0448 20.555 27.9665 21.22 28.9931 21.71C30.0431 22.1767 31.1631 22.41 32.3531 22.41ZM49.4129 25.35C48.9696 25.35 48.6312 25.28 48.3979 25.14C48.1646 25.0233 48.0129 24.8483 47.9429 24.615C47.8962 24.3583 47.8729 24.0667 47.8729 23.74V2.46C47.8729 2.15667 47.9079 1.9 47.9779 1.69C48.0712 1.45667 48.2229 1.27 48.4329 1.13C48.6662 0.989999 49.0046 0.919999 49.4479 0.919999H57.1829C58.3262 0.919999 59.3646 1.095 60.2979 1.445C61.2546 1.77167 62.0829 2.26167 62.7829 2.915C63.4829 3.56833 64.0196 4.39667 64.3929 5.4C64.7896 6.38 64.9879 7.52333 64.9879 8.83C64.9879 9.64667 64.8596 10.4983 64.6029 11.385C64.3462 12.2483 63.9496 13.065 63.4129 13.835C62.8996 14.605 62.2346 15.2467 61.4179 15.76C60.6012 16.2733 59.6096 16.565 58.4429 16.635H51.0229V23.775C51.0229 24.1017 50.9762 24.3817 50.8829 24.615C50.8129 24.8483 50.6612 25.0233 50.4279 25.14C50.2179 25.28 49.8796 25.35 49.4129 25.35ZM64.4279 24.965C63.9379 25.2917 63.5179 25.3967 63.1679 25.28C62.8412 25.1633 62.5262 24.8833 62.2229 24.44L56.6229 15.48L60.0879 14.955L64.9179 22.655C65.1512 23.0283 65.2912 23.3433 65.3379 23.6C65.4079 23.8567 65.3612 24.09 65.1979 24.3C65.0579 24.51 64.8012 24.7317 64.4279 24.965ZM51.0229 13.555H57.9529C58.4896 13.555 58.9912 13.4617 59.4579 13.275C59.9246 13.065 60.3329 12.7617 60.6829 12.365C61.0329 11.9683 61.3129 11.4783 61.5229 10.895C61.7329 10.3117 61.8379 9.61167 61.8379 8.795C61.8379 7.79167 61.6512 6.94 61.2779 6.24C60.9279 5.54 60.4029 5.015 59.7029 4.665C59.0029 4.29167 58.1396 4.105 57.1129 4.105H51.0229V13.555ZM86.1973 0.919999C86.5007 0.919999 86.7457 0.954999 86.9323 1.025C87.1423 1.095 87.3057 1.235 87.4223 1.445C87.539 1.63167 87.5973 1.94667 87.5973 2.39C87.5973 2.81 87.5273 3.125 87.3873 3.335C87.2707 3.545 87.1073 3.685 86.8973 3.755C86.6873 3.80167 86.4307 3.825 86.1273 3.825H78.8823V23.81C78.8823 24.1133 78.8357 24.3817 78.7423 24.615C78.6723 24.8483 78.5207 25.0233 78.2873 25.14C78.0773 25.28 77.7507 25.35 77.3073 25.35C76.8407 25.35 76.4907 25.28 76.2573 25.14C76.0473 25.0233 75.9073 24.8483 75.8373 24.615C75.7907 24.3583 75.7673 24.0783 75.7673 23.775V3.825H68.4173C68.114 3.825 67.8573 3.80167 67.6473 3.755C67.4373 3.685 67.274 3.545 67.1573 3.335C67.0407 3.125 66.9823 2.81 66.9823 2.39C66.9823 1.94667 67.029 1.63167 67.1223 1.445C67.239 1.235 67.4023 1.095 67.6123 1.025C67.8457 0.954999 68.1023 0.919999 68.3823 0.919999H86.1973ZM93.1295 25.35C92.6629 25.35 92.3129 25.28 92.0795 25.14C91.8695 25.0233 91.7295 24.8483 91.6595 24.615C91.5895 24.3583 91.5545 24.0667 91.5545 23.74V2.495C91.5545 1.88833 91.6712 1.48 91.9045 1.27C92.1612 1.03667 92.6045 0.919999 93.2345 0.919999H107.305C107.631 0.919999 107.9 0.954999 108.11 1.025C108.343 1.095 108.518 1.24667 108.635 1.48C108.751 1.71333 108.81 2.06333 108.81 2.53C108.81 2.99667 108.74 3.34667 108.6 3.58C108.483 3.79 108.308 3.93 108.075 4C107.841 4.07 107.561 4.105 107.235 4.105H94.7045V11.35H103.42C103.746 11.35 104.015 11.385 104.225 11.455C104.458 11.525 104.633 11.665 104.75 11.875C104.866 12.085 104.925 12.4117 104.925 12.855C104.925 13.275 104.866 13.59 104.75 13.8C104.633 14.01 104.458 14.15 104.225 14.22C104.015 14.2667 103.735 14.29 103.385 14.29H94.7045V23.775C94.7045 24.1017 94.6695 24.3817 94.5995 24.615C94.5295 24.8483 94.3779 25.0233 94.1445 25.14C93.9345 25.28 93.5962 25.35 93.1295 25.35ZM123.96 25.595C122.303 25.595 120.74 25.28 119.27 24.65C117.823 24.02 116.54 23.145 115.42 22.025C114.323 20.8817 113.46 19.575 112.83 18.105C112.2 16.635 111.885 15.0483 111.885 13.345C111.885 11.6183 112.188 9.99667 112.795 8.48C113.401 6.94 114.241 5.59833 115.315 4.455C116.411 3.31167 117.671 2.41333 119.095 1.76C120.518 1.10667 122.035 0.779999 123.645 0.779999C125.325 0.779999 126.888 1.095 128.335 1.725C129.805 2.355 131.076 3.24167 132.15 4.385C133.246 5.505 134.11 6.82333 134.74 8.34C135.37 9.85667 135.685 11.4783 135.685 13.205C135.685 14.9083 135.37 16.5067 134.74 18C134.133 19.47 133.293 20.7883 132.22 21.955C131.146 23.0983 129.898 23.9967 128.475 24.65C127.075 25.28 125.57 25.595 123.96 25.595ZM123.75 22.41C124.963 22.41 126.095 22.1767 127.145 21.71C128.218 21.2433 129.151 20.59 129.945 19.75C130.738 18.8867 131.356 17.9067 131.8 16.81C132.266 15.69 132.5 14.4767 132.5 13.17C132.5 11.91 132.266 10.7317 131.8 9.635C131.356 8.515 130.726 7.535 129.91 6.695C129.116 5.83167 128.195 5.155 127.145 4.665C126.095 4.175 124.975 3.93 123.785 3.93C122.595 3.93 121.475 4.175 120.425 4.665C119.375 5.155 118.441 5.82 117.625 6.66C116.831 7.5 116.201 8.48 115.735 9.6C115.291 10.72 115.07 11.9217 115.07 13.205C115.07 14.465 115.291 15.655 115.735 16.775C116.201 17.895 116.831 18.875 117.625 19.715C118.441 20.555 119.363 21.22 120.39 21.71C121.44 22.1767 122.56 22.41 123.75 22.41ZM140.529 25.35C140.063 25.35 139.713 25.28 139.479 25.14C139.246 25.0233 139.083 24.8483 138.989 24.615C138.919 24.3817 138.884 24.1017 138.884 23.775V2.53C138.884 2.18 138.919 1.88833 138.989 1.655C139.059 1.42166 139.199 1.24667 139.409 1.13C139.643 0.989999 139.993 0.919999 140.459 0.919999C140.926 0.919999 141.264 0.989999 141.474 1.13C141.708 1.24667 141.859 1.42166 141.929 1.655C141.999 1.88833 142.034 2.16833 142.034 2.495V22.41H153.759C154.063 22.41 154.319 22.445 154.529 22.515C154.739 22.585 154.903 22.725 155.019 22.935C155.159 23.145 155.229 23.46 155.229 23.88C155.229 24.2767 155.171 24.5917 155.054 24.825C154.938 25.035 154.774 25.175 154.564 25.245C154.354 25.315 154.098 25.35 153.794 25.35H140.529ZM159.906 25.35C159.439 25.35 159.089 25.28 158.856 25.14C158.646 25.0233 158.506 24.8483 158.436 24.615C158.366 24.3583 158.331 24.0667 158.331 23.74V2.495C158.331 2.16833 158.366 1.88833 158.436 1.655C158.529 1.42166 158.681 1.24667 158.891 1.13C159.124 0.989999 159.474 0.919999 159.941 0.919999C160.408 0.919999 160.746 0.989999 160.956 1.13C161.189 1.24667 161.329 1.42166 161.376 1.655C161.446 1.88833 161.481 2.18 161.481 2.53V23.775C161.481 24.1017 161.446 24.3817 161.376 24.615C161.306 24.8483 161.154 25.0233 160.921 25.14C160.711 25.28 160.373 25.35 159.906 25.35ZM176.699 25.595C175.042 25.595 173.479 25.28 172.009 24.65C170.562 24.02 169.279 23.145 168.159 22.025C167.062 20.8817 166.199 19.575 165.569 18.105C164.939 16.635 164.624 15.0483 164.624 13.345C164.624 11.6183 164.927 9.99667 165.534 8.48C166.141 6.94 166.981 5.59833 168.054 4.455C169.151 3.31167 170.411 2.41333 171.834 1.76C173.257 1.10667 174.774 0.779999 176.384 0.779999C178.064 0.779999 179.627 1.095 181.074 1.725C182.544 2.355 183.816 3.24167 184.889 4.385C185.986 5.505 186.849 6.82333 187.479 8.34C188.109 9.85667 188.424 11.4783 188.424 13.205C188.424 14.9083 188.109 16.5067 187.479 18C186.872 19.47 186.032 20.7883 184.959 21.955C183.886 23.0983 182.637 23.9967 181.214 24.65C179.814 25.28 178.309 25.595 176.699 25.595ZM176.489 22.41C177.702 22.41 178.834 22.1767 179.884 21.71C180.957 21.2433 181.891 20.59 182.684 19.75C183.477 18.8867 184.096 17.9067 184.539 16.81C185.006 15.69 185.239 14.4767 185.239 13.17C185.239 11.91 185.006 10.7317 184.539 9.635C184.096 8.515 183.466 7.535 182.649 6.695C181.856 5.83167 180.934 5.155 179.884 4.665C178.834 4.175 177.714 3.93 176.524 3.93C175.334 3.93 174.214 4.175 173.164 4.665C172.114 5.155 171.181 5.82 170.364 6.66C169.571 7.5 168.941 8.48 168.474 9.6C168.031 10.72 167.809 11.9217 167.809 13.205C167.809 14.465 168.031 15.655 168.474 16.775C168.941 17.895 169.571 18.875 170.364 19.715C171.181 20.555 172.102 21.22 173.129 21.71C174.179 22.1767 175.299 22.41 176.489 22.41Z" fill="black"/>
<path d="M199.949 26.1C197.949 26.1 196.549 25.7 195.749 24.9C194.949 24.1 194.549 22.7667 194.549 20.9C194.549 19.5 194.715 18.4333 195.049 17.7C195.382 16.9 195.949 16.3333 196.749 16C197.549 15.6 198.615 15.4 199.949 15.4C201.949 15.4 203.315 15.8 204.049 16.6C204.849 17.4 205.249 18.8 205.249 20.8C205.249 22.1333 205.082 23.2 204.749 24C204.415 24.7333 203.849 25.2667 203.049 25.6C202.315 25.9333 201.282 26.1 199.949 26.1Z" fill="#1696D8"/>
</svg>
